<svg width="115" height="43" viewBox="0 0 115 43" fill="none" xmlns="http://www.w3.org/2000/svg">
<path d="M0 14.9688C0 14.6354 0.0208333 14.2708 0.0625 13.875C0.104167 13.4583 0.197917 13.0833 0.34375 12.75C0.489583 12.4167 0.697917 12.1354 0.96875 11.9062C1.26042 11.6771 1.64583 11.5625 2.125 11.5625C2.125 11.8333 2.09375 12.0833 2.03125 12.3125C1.98958 12.5417 1.92708 12.7708 1.84375 13C1.78125 13.2292 1.71875 13.4792 1.65625 13.75C1.61458 14 1.59375 14.2812 1.59375 14.5938C1.59375 15.3854 1.69792 16.125 1.90625 16.8125C2.11458 17.5 2.42708 18.1042 2.84375 18.625C3.28125 19.125 3.8125 19.5208 4.4375 19.8125C5.08333 20.1042 5.84375 20.25 6.71875 20.25C7.09375 20.25 7.55208 20.1667 8.09375 20C8.63542 19.8333 9.17708 19.6354 9.71875 19.4062C10.2604 19.1771 10.7604 18.9479 11.2188 18.7188C11.6771 18.4896 12 18.3229 12.1875 18.2188C12.6458 17.9688 13.0104 17.625 13.2812 17.1875C13.5521 16.7292 13.7604 16.2396 13.9062 15.7188C14.0521 15.1771 14.1458 14.6354 14.1875 14.0938C14.2292 13.5312 14.25 13.0312 14.25 12.5938C14.25 11.8854 14.1771 11.1979 14.0312 10.5312C13.9062 9.84375 13.7604 9.16667 13.5938 8.5C13.4479 7.83333 13.3021 7.16667 13.1562 6.5C13.0312 5.83333 12.9688 5.15625 12.9688 4.46875C13.1979 3.82292 13.5521 3.23958 14.0312 2.71875C14.5312 2.17708 15.0938 1.71875 15.7188 1.34375C16.3646 0.947917 17.0521 0.635417 17.7812 0.40625C18.5104 0.177083 19.2188 0.0416667 19.9062 0C20.4688 0.145833 20.8958 0.333333 21.1875 0.5625C21.4792 0.770833 21.6771 1 21.7812 1.25C21.9062 1.5 21.9375 1.73958 21.875 1.96875C21.8125 2.19792 21.7083 2.40625 21.5625 2.59375C21.3333 2.09375 21.0312 1.76042 20.6562 1.59375C20.3021 1.42708 19.8958 1.375 19.4375 1.4375C19 1.5 18.5521 1.65625 18.0938 1.90625C17.6354 2.15625 17.1979 2.4375 16.7812 2.75C16.3646 3.0625 16 3.39583 15.6875 3.75C15.375 4.08333 15.1458 4.375 15 4.625C15 5.25 15.0625 5.86458 15.1875 6.46875C15.3333 7.05208 15.4792 7.64583 15.625 8.25C15.7917 8.83333 15.9375 9.42708 16.0625 10.0312C16.2083 10.6146 16.2812 11.2188 16.2812 11.8438C16.2812 13.3438 16.0417 14.7188 15.5625 15.9688C15.1042 17.1979 14.4271 18.2604 13.5312 19.1562C12.6562 20.0312 11.5833 20.7083 10.3125 21.1875C9.0625 21.6667 7.65625 21.9062 6.09375 21.9062C5.11458 21.9062 4.23958 21.7083 3.46875 21.3125C2.71875 20.9167 2.08333 20.3958 1.5625 19.75C1.0625 19.0833 0.677083 18.3333 0.40625 17.5C0.135417 16.6667 0 15.8229 0 14.9688ZM18.75 20.25C18.3958 19.4583 18.2396 18.6875 18.2812 17.9375C18.3229 17.1667 18.4896 16.4479 18.7812 15.7812C19.0938 15.0938 19.4896 14.4792 19.9688 13.9375C20.4688 13.375 21 12.8958 21.5625 12.5C22.125 12.0833 22.6875 11.7708 23.25 11.5625C23.8333 11.3542 24.3438 11.2708 24.7812 11.3125C25.2188 11.3333 25.5625 11.4896 25.8125 11.7812C26.0625 12.0729 26.1458 12.5208 26.0625 13.125C26.0625 13.9375 25.8021 14.6458 25.2812 15.25C24.7812 15.8542 24.2188 16.3958 23.5938 16.875C22.9896 17.3542 22.4271 17.7917 21.9062 18.1875C21.4062 18.5625 21.1562 18.9167 21.1562 19.25C21.1562 19.4375 21.2604 19.5833 21.4688 19.6875C21.6979 19.7917 21.9583 19.875 22.25 19.9375C22.5417 19.9792 22.8333 20.0104 23.125 20.0312C23.4167 20.0521 23.625 20.0729 23.75 20.0938C25.7083 19.6771 27.1771 19.4271 28.1562 19.3438C29.1354 19.2396 29.75 19.25 30 19.375C30.25 19.4792 30.1979 19.6562 29.8438 19.9062C29.5104 20.1354 28.9896 20.3854 28.2812 20.6562C27.5729 20.9062 26.75 21.1354 25.8125 21.3438C24.875 21.5521 23.9479 21.6771 23.0312 21.7188C22.1146 21.7396 21.2604 21.6458 20.4688 21.4375C19.6979 21.2292 19.125 20.8333 18.75 20.25ZM24.2188 13.125C23.8021 13.125 23.4062 13.2396 23.0312 13.4688C22.6562 13.6979 22.3125 13.9896 22 14.3438C21.7083 14.6771 21.4583 15.0521 21.25 15.4688C21.0417 15.8646 20.8854 16.2396 20.7812 16.5938C20.8229 16.6146 20.8542 16.625 20.875 16.625H20.9688C21.2604 16.625 21.5938 16.5 21.9688 16.25C22.3438 16 22.6979 15.6979 23.0312 15.3438C23.3646 14.9688 23.6458 14.5833 23.875 14.1875C24.1042 13.7917 24.2188 13.4375 24.2188 13.125ZM25.4688 30.625C25.4688 30.6042 25.4792 30.5625 25.5 30.5C25.5 30.4375 25.5 30.3958 25.5 30.375C25.5208 30.3125 25.5521 30.2188 25.5938 30.0938C25.6354 29.9896 25.6771 29.875 25.7188 29.75C25.7604 29.625 25.8021 29.5 25.8438 29.375C25.8854 29.2708 25.9167 29.1979 25.9375 29.1562C26.0625 28.8646 26.2708 28.3958 26.5625 27.75C26.8542 27.125 27.1875 26.4062 27.5625 25.5938C27.9375 24.8021 28.3333 23.9688 28.75 23.0938C29.1458 22.2188 29.5312 21.3854 29.9062 20.5938C30.2812 19.7812 30.6146 19.0625 30.9062 18.4375C31.2188 17.7917 31.4479 17.3125 31.5938 17C31.8646 16.5625 32.2396 16.0521 32.7188 15.4688C33.2188 14.8854 33.7708 14.2917 34.375 13.6875C34.9792 13.0833 35.625 12.5 36.3125 11.9375C37.0208 11.3542 37.7083 10.8438 38.375 10.4062C39.0625 9.94792 39.7292 9.58333 40.375 9.3125C41.0208 9.02083 41.5938 8.875 42.0938 8.875C42.8438 8.875 43.375 9.01042 43.6875 9.28125C44 9.55208 44.1562 10.1042 44.1562 10.9375C44.1562 11.8333 43.9792 12.7292 43.625 13.625C43.2917 14.5 42.8333 15.3333 42.25 16.125C41.6667 16.9167 40.9792 17.6354 40.1875 18.2812C39.4167 18.9271 38.5938 19.4583 37.7188 19.875C36.8646 20.2917 35.9792 20.5833 35.0625 20.75C34.1458 20.8958 33.2604 20.8646 32.4062 20.6562L32 21.0625L27.9375 31.1875C27.875 31.375 27.6979 31.4896 27.4062 31.5312C27.1146 31.5938 26.875 31.625 26.6875 31.625C26.4167 31.625 26.1458 31.5312 25.875 31.3438C25.6042 31.1771 25.4688 30.9375 25.4688 30.625ZM40.0938 15.4062C41.0729 14.3646 41.7083 13.5417 42 12.9375C42.2917 12.3125 42.3542 11.875 42.1875 11.625C42.0208 11.375 41.6875 11.2812 41.1875 11.3438C40.6875 11.4062 40.125 11.5833 39.5 11.875C38.875 12.1667 38.2396 12.5521 37.5938 13.0312C36.9688 13.5104 36.4479 14.0312 36.0312 14.5938C35.8438 14.8021 35.6146 15.0833 35.3438 15.4375C35.0729 15.7708 34.8021 16.1146 34.5312 16.4688C34.2812 16.8021 34.0625 17.1042 33.875 17.375C33.6875 17.6458 33.5938 17.8021 33.5938 17.8438V18.5C35.0312 18.5 36.2604 18.2917 37.2812 17.875C38.3021 17.4375 39.2396 16.6146 40.0938 15.4062ZM45.5312 19.8438C45.7188 18.6562 46.0729 17.5625 46.5938 16.5625C47.1146 15.5625 47.7083 14.6979 48.375 13.9688C49.0625 13.2188 49.8021 12.6042 50.5938 12.125C51.3854 11.6458 52.1562 11.3438 52.9062 11.2188C53.6562 11.0729 54.3438 11.1042 54.9688 11.3125C55.6146 11.5208 56.1354 11.9375 56.5312 12.5625C56.5312 13.0417 56.4167 13.5 56.1875 13.9375C55.9792 14.375 55.7396 14.8125 55.4688 15.25C55.2188 15.6875 54.9792 16.1354 54.75 16.5938C54.5417 17.0521 54.4375 17.5417 54.4375 18.0625C54.4375 18.6042 54.5521 19.0417 54.7812 19.375C55.0312 19.6875 55.4583 19.8438 56.0625 19.8438C56.5625 19.8438 57.0417 19.7708 57.5 19.625C57.9792 19.4792 58.4583 19.4062 58.9375 19.4062C59.0208 19.4062 59.1562 19.4167 59.3438 19.4375C59.5521 19.4375 59.6875 19.4375 59.75 19.4375C59.5 19.7917 59.1771 20.0938 58.7812 20.3438C58.3854 20.5938 57.9688 20.8125 57.5312 21C57.0938 21.1667 56.6354 21.2917 56.1562 21.375C55.6979 21.4583 55.2708 21.5 54.875 21.5C54.5 21.5 54.1667 21.4167 53.875 21.25C53.5833 21.0833 53.3333 20.8646 53.125 20.5938C52.9167 20.3229 52.75 20.0208 52.625 19.6875C52.5208 19.3333 52.4688 18.9896 52.4688 18.6562C52.1562 19.0104 51.8125 19.3854 51.4375 19.7812C51.0833 20.1562 50.6979 20.5 50.2812 20.8125C49.8854 21.125 49.4479 21.3854 48.9688 21.5938C48.5104 21.8021 48.0312 21.9062 47.5312 21.9062C46.9896 21.9062 46.5208 21.7083 46.125 21.3125C45.7292 20.8958 45.5312 20.4062 45.5312 19.8438ZM47.5938 18.875C47.5938 19.0417 47.5938 19.2292 47.5938 19.4375C47.6146 19.6458 47.75 19.7812 48 19.8438C48.5208 19.7188 49.1146 19.4479 49.7812 19.0312C50.4479 18.5938 51.0729 18.0938 51.6562 17.5312C52.2396 16.9479 52.7292 16.3333 53.125 15.6875C53.5208 15.0208 53.7188 14.3854 53.7188 13.7812C53.7188 13.7396 53.7083 13.6771 53.6875 13.5938C53.6875 13.4896 53.6875 13.4167 53.6875 13.375C52.9792 13.375 52.2604 13.5208 51.5312 13.8125C50.8021 14.1042 50.1458 14.5104 49.5625 15.0312C48.9792 15.5312 48.5 16.1146 48.125 16.7812C47.7708 17.4479 47.5938 18.1458 47.5938 18.875ZM52.9688 38.4688C52.9688 37.2812 53.1771 36.2188 53.5938 35.2812C53.9896 34.3438 54.5208 33.4688 55.1875 32.6562C55.8542 31.8646 56.6146 31.125 57.4688 30.4375C58.3229 29.7708 59.1979 29.1146 60.0938 28.4688C60.9896 27.8438 61.8646 27.2083 62.7188 26.5625C63.5729 25.9167 64.3333 25.2292 65 24.5C65.6667 23.7708 66.1979 22.9792 66.5938 22.125C67.0104 21.2708 67.2188 20.3229 67.2188 19.2812C67.2188 19.2396 67.2188 19.1458 67.2188 19C67.2188 18.8333 67.2083 18.7292 67.1875 18.6875C67.0417 18.8125 66.7604 19 66.3438 19.25C65.9271 19.4792 65.4792 19.7292 65 20C64.5417 20.25 64.0938 20.4792 63.6562 20.6875C63.2188 20.8958 62.9062 21.0312 62.7188 21.0938C62.6979 21.0938 62.6146 21.1042 62.4688 21.125C62.3438 21.1458 62.1875 21.1667 62 21.1875C61.8333 21.2083 61.6667 21.2292 61.5 21.25C61.3333 21.25 61.1979 21.25 61.0938 21.25C60.1562 21.0833 59.5312 20.7604 59.2188 20.2812C58.9062 19.7812 58.8229 19.1979 58.9688 18.5312C59.1146 17.8646 59.4375 17.1562 59.9375 16.4062C60.4583 15.6354 61.0729 14.9062 61.7812 14.2188C62.5104 13.5104 63.2917 12.8854 64.125 12.3438C64.9792 11.7812 65.8021 11.3854 66.5938 11.1562C67.4062 10.9062 68.1458 10.8542 68.8125 11C69.5 11.125 70.0312 11.5312 70.4062 12.2188C70.5312 13.0938 70.5312 13.9167 70.4062 14.6875C70.2812 15.4375 70.1146 16.1771 69.9062 16.9062C69.6979 17.6354 69.4896 18.375 69.2812 19.125C69.0729 19.8542 68.9479 20.6562 68.9062 21.5312H69.1875C69.3125 21.4062 69.5208 21.1875 69.8125 20.875C70.125 20.5625 70.4479 20.2396 70.7812 19.9062C71.1354 19.5521 71.4688 19.2292 71.7812 18.9375C72.0938 18.625 72.3125 18.4062 72.4375 18.2812C72.5 18.2188 72.625 18.1354 72.8125 18.0312C73.0208 17.9271 73.1667 17.875 73.25 17.875V17.9688V18.0312C73.25 18.0521 73.2604 18.0625 73.2812 18.0625C73.2812 18.8125 73.0625 19.5 72.625 20.125C72.2083 20.75 71.6979 21.3333 71.0938 21.875C70.4896 22.4167 69.8646 22.9167 69.2188 23.375C68.5729 23.8542 68.0312 24.3125 67.5938 24.75C67.2396 25.4792 66.8542 26.3854 66.4375 27.4688C66.0208 28.5729 65.5625 29.7396 65.0625 30.9688C64.5625 32.2188 64 33.4792 63.375 34.75C62.7708 36.0417 62.0833 37.2292 61.3125 38.3125C60.5625 39.3958 59.7292 40.3229 58.8125 41.0938C57.8958 41.8854 56.875 42.3958 55.75 42.625C55.2083 42.625 54.7604 42.4896 54.4062 42.2188C54.0312 41.9479 53.7396 41.6042 53.5312 41.1875C53.3229 40.7917 53.1771 40.3438 53.0938 39.8438C53.0104 39.3646 52.9688 38.9062 52.9688 38.4688ZM54.625 40.1562C54.7917 40.5521 54.9896 40.7917 55.2188 40.875C55.4479 40.9583 55.7083 41 56 41C56.5417 41 57.1354 40.7188 57.7812 40.1562C58.4271 39.5938 59.0729 38.8646 59.7188 37.9688C60.3854 37.0938 61.0208 36.1146 61.625 35.0312C62.2292 33.9479 62.7604 32.8958 63.2188 31.875C63.6979 30.8542 64.0729 29.9167 64.3438 29.0625C64.6354 28.2292 64.7812 27.6042 64.7812 27.1875C64.7812 27.1458 64.7708 27.0729 64.75 26.9688C64.75 26.8854 64.75 26.8229 64.75 26.7812C64.6875 26.8229 64.5417 26.8854 64.3125 26.9688C64.1042 27.0729 63.9792 27.1458 63.9375 27.1875C63.0625 27.8333 62.0729 28.5417 60.9688 29.3125C59.8854 30.1042 58.875 30.9688 57.9375 31.9062C56.9792 32.8438 56.1771 33.8542 55.5312 34.9375C54.8854 36.0417 54.5625 37.2292 54.5625 38.5C54.5625 38.5625 54.5625 38.6771 54.5625 38.8438C54.5625 39.0104 54.5729 39.1771 54.5938 39.3438C54.5938 39.5104 54.6042 39.6667 54.625 39.8125C54.625 39.9792 54.625 40.0938 54.625 40.1562ZM68.4062 12.5938C68.0729 12.5938 67.6354 12.7083 67.0938 12.9375C66.5521 13.1458 65.9688 13.4375 65.3438 13.8125C64.7396 14.1875 64.125 14.6146 63.5 15.0938C62.875 15.5729 62.3021 16.0729 61.7812 16.5938C61.2812 17.1146 60.875 17.6354 60.5625 18.1562C60.25 18.6771 60.0938 19.1562 60.0938 19.5938C60.5312 19.5938 61.0625 19.5104 61.6875 19.3438C62.3125 19.1562 62.9583 18.9167 63.625 18.625C64.3125 18.3125 64.9896 17.9583 65.6562 17.5625C66.3229 17.1458 66.9167 16.7083 67.4375 16.25C67.9792 15.7917 68.4167 15.3229 68.75 14.8438C69.0833 14.3646 69.25 13.8958 69.25 13.4375C69.25 12.875 68.9688 12.5938 68.4062 12.5938ZM72.7188 19.8438C72.7188 19.5521 72.75 19.3021 72.8125 19.0938C72.875 18.8646 72.9896 18.5729 73.1562 18.2188C73.3021 18.0104 73.5625 17.6146 73.9375 17.0312C74.3333 16.4479 74.7396 15.8333 75.1562 15.1875C75.5938 14.5417 76 13.9375 76.375 13.375C76.7708 12.7917 77.0417 12.3854 77.1875 12.1562C77.375 11.8854 77.5208 11.7396 77.625 11.7188C77.7292 11.6979 77.9271 11.6875 78.2188 11.6875C78.4062 11.6875 78.6042 11.6979 78.8125 11.7188C79.0417 11.7396 79.1875 11.8854 79.25 12.1562C78.9583 12.8646 78.5625 13.5417 78.0625 14.1875C77.5833 14.8125 77.1042 15.4375 76.625 16.0625C76.1667 16.6875 75.7604 17.3333 75.4062 18C75.0521 18.6458 74.875 19.3438 74.875 20.0938C74.9583 20.0938 75.0833 20.1042 75.25 20.125C75.4375 20.1458 75.6354 20.1667 75.8438 20.1875C76.0521 20.2083 76.2396 20.2292 76.4062 20.25C76.5938 20.2708 76.7292 20.2708 76.8125 20.25C76.9375 20.2292 77.1458 20.1875 77.4375 20.125C77.75 20.0417 78.0729 19.9583 78.4062 19.875C78.7604 19.7917 79.0938 19.7083 79.4062 19.625C79.7188 19.5417 79.9375 19.4792 80.0625 19.4375C80.0625 19.4792 80.0625 19.5521 80.0625 19.6562C80.0833 19.7396 80.0938 19.8021 80.0938 19.8438C80.0938 20.2604 79.8958 20.6042 79.5 20.875C79.125 21.1458 78.6771 21.3646 78.1562 21.5312C77.6562 21.6771 77.1354 21.7812 76.5938 21.8438C76.0729 21.8854 75.6667 21.9062 75.375 21.9062C75.0625 21.9062 74.7396 21.875 74.4062 21.8125C74.0938 21.7292 73.8125 21.6042 73.5625 21.4375C73.3125 21.2708 73.1042 21.0625 72.9375 20.8125C72.7917 20.5417 72.7188 20.2188 72.7188 19.8438ZM81.8125 1.53125C82.0833 1.53125 82.3333 1.54167 82.5625 1.5625C82.7917 1.58333 82.9896 1.63542 83.1562 1.71875C83.3229 1.80208 83.4583 1.92708 83.5625 2.09375C83.6667 2.26042 83.7188 2.48958 83.7188 2.78125C83.7188 2.90625 83.7188 3.04167 83.7188 3.1875C83.7188 3.33333 83.6979 3.47917 83.6562 3.625C83.6354 3.75 83.5833 3.86458 83.5 3.96875C83.4167 4.05208 83.2812 4.09375 83.0938 4.09375C82.8021 4.09375 82.5625 3.98958 82.375 3.78125C82.2083 3.57292 82.0833 3.33333 82 3.0625C81.9167 2.77083 81.8646 2.47917 81.8438 2.1875C81.8229 1.89583 81.8125 1.67708 81.8125 1.53125ZM80.5312 19.8438C80.7188 18.6562 81.0729 17.5625 81.5938 16.5625C82.1146 15.5625 82.7083 14.6979 83.375 13.9688C84.0625 13.2188 84.8021 12.6042 85.5938 12.125C86.3854 11.6458 87.1562 11.3438 87.9062 11.2188C88.6562 11.0729 89.3438 11.1042 89.9688 11.3125C90.6146 11.5208 91.1354 11.9375 91.5312 12.5625C91.5312 13.0417 91.4167 13.5 91.1875 13.9375C90.9792 14.375 90.7396 14.8125 90.4688 15.25C90.2188 15.6875 89.9792 16.1354 89.75 16.5938C89.5417 17.0521 89.4375 17.5417 89.4375 18.0625C89.4375 18.6042 89.5521 19.0417 89.7812 19.375C90.0312 19.6875 90.4583 19.8438 91.0625 19.8438C91.5625 19.8438 92.0417 19.7708 92.5 19.625C92.9792 19.4792 93.4583 19.4062 93.9375 19.4062C94.0208 19.4062 94.1562 19.4167 94.3438 19.4375C94.5521 19.4375 94.6875 19.4375 94.75 19.4375C94.5 19.7917 94.1771 20.0938 93.7812 20.3438C93.3854 20.5938 92.9688 20.8125 92.5312 21C92.0938 21.1667 91.6354 21.2917 91.1562 21.375C90.6979 21.4583 90.2708 21.5 89.875 21.5C89.5 21.5 89.1667 21.4167 88.875 21.25C88.5833 21.0833 88.3333 20.8646 88.125 20.5938C87.9167 20.3229 87.75 20.0208 87.625 19.6875C87.5208 19.3333 87.4688 18.9896 87.4688 18.6562C87.1562 19.0104 86.8125 19.3854 86.4375 19.7812C86.0833 20.1562 85.6979 20.5 85.2812 20.8125C84.8854 21.125 84.4479 21.3854 83.9688 21.5938C83.5104 21.8021 83.0312 21.9062 82.5312 21.9062C81.9896 21.9062 81.5208 21.7083 81.125 21.3125C80.7292 20.8958 80.5312 20.4062 80.5312 19.8438ZM82.5938 18.875C82.5938 19.0417 82.5938 19.2292 82.5938 19.4375C82.6146 19.6458 82.75 19.7812 83 19.8438C83.5208 19.7188 84.1146 19.4479 84.7812 19.0312C85.4479 18.5938 86.0729 18.0938 86.6562 17.5312C87.2396 16.9479 87.7292 16.3333 88.125 15.6875C88.5208 15.0208 88.7188 14.3854 88.7188 13.7812C88.7188 13.7396 88.7083 13.6771 88.6875 13.5938C88.6875 13.4896 88.6875 13.4167 88.6875 13.375C87.9792 13.375 87.2604 13.5208 86.5312 13.8125C85.8021 14.1042 85.1458 14.5104 84.5625 15.0312C83.9792 15.5312 83.5 16.1146 83.125 16.7812C82.7708 17.4479 82.5938 18.1458 82.5938 18.875ZM94.25 20.4688C94.25 20.2812 94.25 20.1354 94.25 20.0312C94.25 19.9271 94.2604 19.8333 94.2812 19.75C94.3229 19.6458 94.375 19.5417 94.4375 19.4375C94.5 19.3333 94.5833 19.1979 94.6875 19.0312C94.8542 18.7396 95.1667 18.2292 95.625 17.5C96.0833 16.7708 96.5729 16 97.0938 15.1875C97.6146 14.375 98.1042 13.6042 98.5625 12.875C99.0417 12.1458 99.375 11.6354 99.5625 11.3438C99.5833 11.3229 99.6354 11.3125 99.7188 11.3125C99.8229 11.3125 99.8958 11.3125 99.9375 11.3125C99.9792 11.3125 100.052 11.3125 100.156 11.3125C100.26 11.3125 100.323 11.3229 100.344 11.3438C100.365 11.3646 100.406 11.4167 100.469 11.5C100.552 11.5833 100.635 11.6771 100.719 11.7812C100.823 11.8646 100.906 11.9479 100.969 12.0312C101.052 12.1146 101.115 12.1562 101.156 12.1562C101.344 12.1562 101.542 12.0938 101.75 11.9688C101.958 11.8438 102.167 11.7083 102.375 11.5625C102.604 11.3958 102.833 11.25 103.062 11.125C103.292 11 103.531 10.9375 103.781 10.9375C104.052 10.9375 104.302 11 104.531 11.125C104.76 11.25 104.958 11.4062 105.125 11.5938C105.292 11.7812 105.417 11.9896 105.5 12.2188C105.604 12.4479 105.656 12.6771 105.656 12.9062C105.656 13.3854 105.583 13.8438 105.438 14.2812C105.312 14.7188 105.167 15.1562 105 15.5938C104.833 16.0104 104.677 16.4375 104.531 16.875C104.406 17.2917 104.344 17.7292 104.344 18.1875C104.344 18.6458 104.396 18.9792 104.5 19.1875C104.604 19.375 104.896 19.4688 105.375 19.4688C105.938 19.4688 106.469 19.3854 106.969 19.2188C107.49 19.0521 108.021 18.9688 108.562 18.9688C108.562 19.4688 108.406 19.8854 108.094 20.2188C107.802 20.5521 107.427 20.8229 106.969 21.0312C106.531 21.2188 106.052 21.3542 105.531 21.4375C105.031 21.5 104.573 21.5312 104.156 21.5312C103.365 21.5312 102.781 21.3125 102.406 20.875C102.052 20.4167 101.875 19.8125 101.875 19.0625C101.875 18.5625 101.958 18.0938 102.125 17.6562C102.312 17.2188 102.51 16.7917 102.719 16.375C102.948 15.9583 103.156 15.5417 103.344 15.125C103.531 14.7083 103.625 14.2604 103.625 13.7812C103.625 13.6562 103.604 13.4896 103.562 13.2812C103.521 13.0729 103.385 12.9688 103.156 12.9688C102.469 12.9688 101.844 13.1875 101.281 13.625C100.74 14.0625 100.24 14.6146 99.7812 15.2812C99.3438 15.9479 98.9375 16.6667 98.5625 17.4375C98.2083 18.2083 97.8646 18.9271 97.5312 19.5938C97.2188 20.2604 96.9167 20.8125 96.625 21.25C96.3333 21.6875 96.0312 21.9062 95.7188 21.9062C95.2812 21.9062 94.9271 21.7708 94.6562 21.5C94.3854 21.2292 94.25 20.8854 94.25 20.4688ZM111.75 19.3125C111.958 19.3125 112.219 19.3125 112.531 19.3125C112.865 19.3125 113.188 19.3438 113.5 19.4062C113.812 19.4688 114.083 19.5729 114.312 19.7188C114.542 19.8646 114.656 20.0938 114.656 20.4062C114.656 20.8646 114.531 21.2292 114.281 21.5C114.031 21.7708 113.677 21.9062 113.219 21.9062C113.156 21.9062 113.042 21.9062 112.875 21.9062C112.729 21.9062 112.573 21.8958 112.406 21.875C112.24 21.8333 112.083 21.7812 111.938 21.7188C111.812 21.6562 111.75 21.5729 111.75 21.4688V19.3125Z" fill="white"/>
</svg>
