<svg width="111" height="22" viewBox="0 0 111 22" fill="none" xmlns="http://www.w3.org/2000/svg">
<path d="M4.03125 21.0938C4.03125 20.6146 4.13542 20.1146 4.34375 19.5938C4.55208 19.0521 4.73958 18.5938 4.90625 18.2188C5.05208 17.9271 5.28125 17.4792 5.59375 16.875C5.90625 16.25 6.26042 15.5521 6.65625 14.7812C7.05208 14.0104 7.46875 13.1979 7.90625 12.3438C8.36458 11.4896 8.79167 10.6771 9.1875 9.90625C9.58333 9.13542 9.9375 8.44792 10.25 7.84375C10.5833 7.21875 10.8229 6.76042 10.9688 6.46875C10.9896 6.44792 11.0312 6.375 11.0938 6.25C11.1771 6.125 11.2604 6 11.3438 5.875C11.4479 5.75 11.5417 5.63542 11.625 5.53125C11.7083 5.40625 11.7604 5.32292 11.7812 5.28125C11.8021 5.23958 11.7917 5.19792 11.75 5.15625C11.7083 5.11458 11.6875 5.07292 11.6875 5.03125C10.7917 5.13542 9.85417 5.27083 8.875 5.4375C7.91667 5.60417 6.95833 5.80208 6 6.03125C5.0625 6.23958 4.15625 6.48958 3.28125 6.78125C2.40625 7.05208 1.61458 7.36458 0.90625 7.71875C0.677083 7.71875 0.46875 7.67708 0.28125 7.59375C0.09375 7.51042 0 7.34375 0 7.09375V7C0 6.97917 0.0104167 6.94792 0.03125 6.90625C0.0729167 6.80208 0.135417 6.64583 0.21875 6.4375C0.322917 6.20833 0.395833 6.08333 0.4375 6.0625L3.28125 4.84375L22.3125 0C22.5417 0.583333 22.5208 1.05208 22.25 1.40625C22 1.73958 21.5938 2.02083 21.0312 2.25C20.4688 2.45833 19.8125 2.64583 19.0625 2.8125C18.3333 2.95833 17.5938 3.14583 16.8438 3.375C16.1146 3.58333 15.4375 3.875 14.8125 4.25C14.1875 4.60417 13.7188 5.08333 13.4062 5.6875C12.0521 8.375 10.6562 11.0521 9.21875 13.7188C7.80208 16.3854 6.5 19.1042 5.3125 21.875C5.29167 21.875 5.25 21.875 5.1875 21.875C5.14583 21.8958 5.11458 21.9062 5.09375 21.9062C4.82292 21.9062 4.57292 21.8438 4.34375 21.7188C4.13542 21.5938 4.03125 21.3854 4.03125 21.0938ZM15.9688 20.3125C15.9688 20 16.0625 19.5625 16.25 19C16.4375 18.4167 16.6771 17.7917 16.9688 17.125C17.2812 16.4583 17.625 15.7812 18 15.0938C18.3958 14.4062 18.7917 13.7812 19.1875 13.2188C19.5833 12.6562 19.9583 12.1979 20.3125 11.8438C20.6667 11.4896 20.9792 11.3125 21.25 11.3125C21.8333 11.3125 22.125 11.5938 22.125 12.1562C22.125 12.4062 22.0729 12.6146 21.9688 12.7812C21.8854 12.9479 21.7812 13.1042 21.6562 13.25C21.5312 13.3958 21.3958 13.5417 21.25 13.6875C21.1042 13.8125 20.9792 13.9688 20.875 14.1562C20.6875 14.4688 20.4583 14.8958 20.1875 15.4375C19.9167 15.9792 19.6458 16.5104 19.375 17.0312C19.125 17.5312 18.9062 17.9792 18.7188 18.375C18.5312 18.7708 18.4375 18.9896 18.4375 19.0312V19.4375C19.25 19.2917 20.0312 18.9479 20.7812 18.4062C21.5312 17.8438 22.2396 17.1875 22.9062 16.4375C23.5938 15.6875 24.2396 14.9062 24.8438 14.0938C25.4688 13.2604 26.0521 12.5 26.5938 11.8125C27.1354 11.1042 27.6458 10.5208 28.125 10.0625C28.6042 9.60417 29.0521 9.375 29.4688 9.375C29.4688 10.1458 29.3125 10.8438 29 11.4688C28.6875 12.0938 28.3438 12.7083 27.9688 13.3125C27.6146 13.9167 27.2812 14.5417 26.9688 15.1875C26.6562 15.8125 26.5 16.5208 26.5 17.3125C26.5 17.6458 26.6979 17.9479 27.0938 18.2188C27.5104 18.4688 27.9792 18.6875 28.5 18.875C29.0417 19.0417 29.5625 19.1771 30.0625 19.2812C30.5625 19.3854 30.9062 19.4479 31.0938 19.4688V20.2812C30.6146 20.3021 30.0208 20.3125 29.3125 20.3125C28.6042 20.2917 27.8958 20.2083 27.1875 20.0625C26.4792 19.9167 25.8333 19.6771 25.25 19.3438C24.6875 18.9896 24.3125 18.4792 24.125 17.8125C23.5833 18.1667 23.0625 18.5833 22.5625 19.0625C22.0625 19.5417 21.5417 19.9896 21 20.4062C20.4792 20.8229 19.9271 21.1771 19.3438 21.4688C18.7604 21.7604 18.125 21.9062 17.4375 21.9062C17.0208 21.9062 16.6667 21.7292 16.375 21.375C16.1042 21.0208 15.9688 20.6667 15.9688 20.3125ZM30.7812 19.0312C30.7812 18.8854 30.7917 18.6667 30.8125 18.375C30.8542 18.0625 30.8958 17.7604 30.9375 17.4688C30.9792 17.1771 31.0208 16.9167 31.0625 16.6875C31.1042 16.4375 31.1458 16.2812 31.1875 16.2188L36.875 4.84375C36.9583 4.67708 37.1146 4.44792 37.3438 4.15625C37.5938 3.84375 37.8542 3.53125 38.125 3.21875C38.4167 2.88542 38.6979 2.58333 38.9688 2.3125C39.2604 2.02083 39.5 1.79167 39.6875 1.625C39.8333 1.66667 39.9375 1.73958 40 1.84375C40.0625 1.94792 40.1042 2.07292 40.125 2.21875C40.1458 2.34375 40.1458 2.46875 40.125 2.59375C40.125 2.71875 40.125 2.82292 40.125 2.90625C40.125 3.01042 40.125 3.15625 40.125 3.34375C40.125 3.53125 40.1146 3.625 40.0938 3.625C39.8854 4.1875 39.5625 4.85417 39.125 5.625C38.6875 6.39583 38.1979 7.21875 37.6562 8.09375C37.1146 8.96875 36.5521 9.88542 35.9688 10.8438C35.4062 11.7812 34.8854 12.7188 34.4062 13.6562C33.9479 14.5729 33.5625 15.4583 33.25 16.3125C32.9583 17.1667 32.8125 17.9479 32.8125 18.6562C32.8125 19.0312 32.9167 19.3333 33.125 19.5625C33.3542 19.7708 33.5938 19.9583 33.8438 20.125C34.0938 20.2917 34.3229 20.4583 34.5312 20.625C34.7604 20.7917 34.875 21.0208 34.875 21.3125C34.875 21.5 34.7917 21.6458 34.625 21.75C34.4583 21.8333 34.2604 21.875 34.0312 21.875C33.1562 21.875 32.3958 21.6354 31.75 21.1562C31.1042 20.6562 30.7812 19.9479 30.7812 19.0312ZM38.7188 19.8438C38.7188 19.5521 38.75 19.3021 38.8125 19.0938C38.875 18.8646 38.9896 18.5729 39.1562 18.2188C39.3021 18.0104 39.5625 17.6146 39.9375 17.0312C40.3333 16.4479 40.7396 15.8333 41.1562 15.1875C41.5938 14.5417 42 13.9375 42.375 13.375C42.7708 12.7917 43.0417 12.3854 43.1875 12.1562C43.375 11.8854 43.5208 11.7396 43.625 11.7188C43.7292 11.6979 43.9271 11.6875 44.2188 11.6875C44.4062 11.6875 44.6042 11.6979 44.8125 11.7188C45.0417 11.7396 45.1875 11.8854 45.25 12.1562C44.9583 12.8646 44.5625 13.5417 44.0625 14.1875C43.5833 14.8125 43.1042 15.4375 42.625 16.0625C42.1667 16.6875 41.7604 17.3333 41.4062 18C41.0521 18.6458 40.875 19.3438 40.875 20.0938C40.9583 20.0938 41.0833 20.1042 41.25 20.125C41.4375 20.1458 41.6354 20.1667 41.8438 20.1875C42.0521 20.2083 42.2396 20.2292 42.4062 20.25C42.5938 20.2708 42.7292 20.2708 42.8125 20.25C42.9375 20.2292 43.1458 20.1875 43.4375 20.125C43.75 20.0417 44.0729 19.9583 44.4062 19.875C44.7604 19.7917 45.0938 19.7083 45.4062 19.625C45.7188 19.5417 45.9375 19.4792 46.0625 19.4375C46.0625 19.4792 46.0625 19.5521 46.0625 19.6562C46.0833 19.7396 46.0938 19.8021 46.0938 19.8438C46.0938 20.2604 45.8958 20.6042 45.5 20.875C45.125 21.1458 44.6771 21.3646 44.1562 21.5312C43.6562 21.6771 43.1354 21.7812 42.5938 21.8438C42.0729 21.8854 41.6667 21.9062 41.375 21.9062C41.0625 21.9062 40.7396 21.875 40.4062 21.8125C40.0938 21.7292 39.8125 21.6042 39.5625 21.4375C39.3125 21.2708 39.1042 21.0625 38.9375 20.8125C38.7917 20.5417 38.7188 20.2188 38.7188 19.8438ZM47.8125 1.53125C48.0833 1.53125 48.3333 1.54167 48.5625 1.5625C48.7917 1.58333 48.9896 1.63542 49.1562 1.71875C49.3229 1.80208 49.4583 1.92708 49.5625 2.09375C49.6667 2.26042 49.7188 2.48958 49.7188 2.78125C49.7188 2.90625 49.7188 3.04167 49.7188 3.1875C49.7188 3.33333 49.6979 3.47917 49.6562 3.625C49.6354 3.75 49.5833 3.86458 49.5 3.96875C49.4167 4.05208 49.2812 4.09375 49.0938 4.09375C48.8021 4.09375 48.5625 3.98958 48.375 3.78125C48.2083 3.57292 48.0833 3.33333 48 3.0625C47.9167 2.77083 47.8646 2.47917 47.8438 2.1875C47.8229 1.89583 47.8125 1.67708 47.8125 1.53125ZM46.3438 18.4062C46.3438 18.0104 46.3958 17.6667 46.5 17.375C46.625 17.0833 46.9271 16.9375 47.4062 16.9375C47.4479 16.9375 47.5417 16.9479 47.6875 16.9688C47.8542 16.9688 47.9688 16.9792 48.0312 17C48.0104 17.9792 48.1667 18.7188 48.5 19.2188C48.8333 19.6979 49.4583 19.9375 50.375 19.9375C51.125 19.9375 51.8646 19.8229 52.5938 19.5938C53.3229 19.3646 53.9792 19.0312 54.5625 18.5938C55.1667 18.1354 55.6458 17.5833 56 16.9375C56.375 16.2917 56.5625 15.5625 56.5625 14.75C56.5625 14.25 56.3854 13.8958 56.0312 13.6875C55.6979 13.4792 55.3229 13.3125 54.9062 13.1875C54.4896 13.0625 54.1042 12.9271 53.75 12.7812C53.4167 12.6146 53.25 12.3333 53.25 11.9375C53.25 11.4583 53.5417 11 54.125 10.5625C54.7083 10.125 55.3958 9.73958 56.1875 9.40625C56.9792 9.05208 57.7604 8.78125 58.5312 8.59375C59.3229 8.38542 59.9271 8.28125 60.3438 8.28125C60.3438 8.88542 60.2083 9.3125 59.9375 9.5625C59.6875 9.8125 59.375 10.0104 59 10.1562C58.625 10.3021 58.2396 10.4479 57.8438 10.5938C57.4688 10.7188 57.1562 10.9688 56.9062 11.3438C57.2396 11.6146 57.5104 11.8646 57.7188 12.0938C57.9479 12.3021 58.125 12.5312 58.25 12.7812C58.375 13.0312 58.4583 13.3125 58.5 13.625C58.5417 13.9167 58.5625 14.2708 58.5625 14.6875C58.5625 15.7708 58.3229 16.7604 57.8438 17.6562C57.3854 18.5312 56.7812 19.2917 56.0312 19.9375C55.2812 20.5625 54.4271 21.0521 53.4688 21.4062C52.5104 21.7396 51.5312 21.9062 50.5312 21.9062C49.9896 21.9062 49.4583 21.8438 48.9375 21.7188C48.4375 21.5729 47.9896 21.3542 47.5938 21.0625C47.2188 20.7708 46.9167 20.4062 46.6875 19.9688C46.4583 19.5312 46.3438 19.0104 46.3438 18.4062ZM61.5 19.8438C61.6875 18.6562 62.0417 17.5625 62.5625 16.5625C63.0833 15.5625 63.6771 14.6979 64.3438 13.9688C65.0312 13.2188 65.7708 12.6042 66.5625 12.125C67.3542 11.6458 68.125 11.3438 68.875 11.2188C69.625 11.0729 70.3125 11.1042 70.9375 11.3125C71.5833 11.5208 72.1042 11.9375 72.5 12.5625C72.5 13.0417 72.3854 13.5 72.1562 13.9375C71.9479 14.375 71.7083 14.8125 71.4375 15.25C71.1875 15.6875 70.9479 16.1354 70.7188 16.5938C70.5104 17.0521 70.4062 17.5417 70.4062 18.0625C70.4062 18.6042 70.5208 19.0417 70.75 19.375C71 19.6875 71.4271 19.8438 72.0312 19.8438C72.5312 19.8438 73.0104 19.7708 73.4688 19.625C73.9479 19.4792 74.4271 19.4062 74.9062 19.4062C74.9896 19.4062 75.125 19.4167 75.3125 19.4375C75.5208 19.4375 75.6562 19.4375 75.7188 19.4375C75.4688 19.7917 75.1458 20.0938 74.75 20.3438C74.3542 20.5938 73.9375 20.8125 73.5 21C73.0625 21.1667 72.6042 21.2917 72.125 21.375C71.6667 21.4583 71.2396 21.5 70.8438 21.5C70.4688 21.5 70.1354 21.4167 69.8438 21.25C69.5521 21.0833 69.3021 20.8646 69.0938 20.5938C68.8854 20.3229 68.7188 20.0208 68.5938 19.6875C68.4896 19.3333 68.4375 18.9896 68.4375 18.6562C68.125 19.0104 67.7812 19.3854 67.4062 19.7812C67.0521 20.1562 66.6667 20.5 66.25 20.8125C65.8542 21.125 65.4167 21.3854 64.9375 21.5938C64.4792 21.8021 64 21.9062 63.5 21.9062C62.9583 21.9062 62.4896 21.7083 62.0938 21.3125C61.6979 20.8958 61.5 20.4062 61.5 19.8438ZM63.5625 18.875C63.5625 19.0417 63.5625 19.2292 63.5625 19.4375C63.5833 19.6458 63.7188 19.7812 63.9688 19.8438C64.4896 19.7188 65.0833 19.4479 65.75 19.0312C66.4167 18.5938 67.0417 18.0938 67.625 17.5312C68.2083 16.9479 68.6979 16.3333 69.0938 15.6875C69.4896 15.0208 69.6875 14.3854 69.6875 13.7812C69.6875 13.7396 69.6771 13.6771 69.6562 13.5938C69.6562 13.4896 69.6562 13.4167 69.6562 13.375C68.9479 13.375 68.2292 13.5208 67.5 13.8125C66.7708 14.1042 66.1146 14.5104 65.5312 15.0312C64.9479 15.5312 64.4688 16.1146 64.0938 16.7812C63.7396 17.4479 63.5625 18.1458 63.5625 18.875ZM75.2188 20.4688C75.2188 20.2812 75.2188 20.1354 75.2188 20.0312C75.2188 19.9271 75.2292 19.8333 75.25 19.75C75.2917 19.6458 75.3438 19.5417 75.4062 19.4375C75.4688 19.3333 75.5521 19.1979 75.6562 19.0312C75.8229 18.7396 76.1354 18.2292 76.5938 17.5C77.0521 16.7708 77.5417 16 78.0625 15.1875C78.5833 14.375 79.0729 13.6042 79.5312 12.875C80.0104 12.1458 80.3438 11.6354 80.5312 11.3438C80.5521 11.3229 80.6042 11.3125 80.6875 11.3125C80.7917 11.3125 80.8646 11.3125 80.9062 11.3125C80.9479 11.3125 81.0208 11.3125 81.125 11.3125C81.2292 11.3125 81.2917 11.3229 81.3125 11.3438C81.3333 11.3646 81.375 11.4167 81.4375 11.5C81.5208 11.5833 81.6042 11.6771 81.6875 11.7812C81.7917 11.8646 81.875 11.9479 81.9375 12.0312C82.0208 12.1146 82.0833 12.1562 82.125 12.1562C82.3125 12.1562 82.5104 12.0938 82.7188 11.9688C82.9271 11.8438 83.1354 11.7083 83.3438 11.5625C83.5729 11.3958 83.8021 11.25 84.0312 11.125C84.2604 11 84.5 10.9375 84.75 10.9375C85.0208 10.9375 85.2708 11 85.5 11.125C85.7292 11.25 85.9271 11.4062 86.0938 11.5938C86.2604 11.7812 86.3854 11.9896 86.4688 12.2188C86.5729 12.4479 86.625 12.6771 86.625 12.9062C86.625 13.3854 86.5521 13.8438 86.4062 14.2812C86.2812 14.7188 86.1354 15.1562 85.9688 15.5938C85.8021 16.0104 85.6458 16.4375 85.5 16.875C85.375 17.2917 85.3125 17.7292 85.3125 18.1875C85.3125 18.6458 85.3646 18.9792 85.4688 19.1875C85.5729 19.375 85.8646 19.4688 86.3438 19.4688C86.9062 19.4688 87.4375 19.3854 87.9375 19.2188C88.4583 19.0521 88.9896 18.9688 89.5312 18.9688C89.5312 19.4688 89.375 19.8854 89.0625 20.2188C88.7708 20.5521 88.3958 20.8229 87.9375 21.0312C87.5 21.2188 87.0208 21.3542 86.5 21.4375C86 21.5 85.5417 21.5312 85.125 21.5312C84.3333 21.5312 83.75 21.3125 83.375 20.875C83.0208 20.4167 82.8438 19.8125 82.8438 19.0625C82.8438 18.5625 82.9271 18.0938 83.0938 17.6562C83.2812 17.2188 83.4792 16.7917 83.6875 16.375C83.9167 15.9583 84.125 15.5417 84.3125 15.125C84.5 14.7083 84.5938 14.2604 84.5938 13.7812C84.5938 13.6562 84.5729 13.4896 84.5312 13.2812C84.4896 13.0729 84.3542 12.9688 84.125 12.9688C83.4375 12.9688 82.8125 13.1875 82.25 13.625C81.7083 14.0625 81.2083 14.6146 80.75 15.2812C80.3125 15.9479 79.9062 16.6667 79.5312 17.4375C79.1771 18.2083 78.8333 18.9271 78.5 19.5938C78.1875 20.2604 77.8854 20.8125 77.5938 21.25C77.3021 21.6875 77 21.9062 76.6875 21.9062C76.25 21.9062 75.8958 21.7708 75.625 21.5C75.3542 21.2292 75.2188 20.8854 75.2188 20.4688ZM92.7188 19.3125C92.9271 19.3125 93.1875 19.3125 93.5 19.3125C93.8333 19.3125 94.1562 19.3438 94.4688 19.4062C94.7812 19.4688 95.0521 19.5729 95.2812 19.7188C95.5104 19.8646 95.625 20.0938 95.625 20.4062C95.625 20.8646 95.5 21.2292 95.25 21.5C95 21.7708 94.6458 21.9062 94.1875 21.9062C94.125 21.9062 94.0104 21.9062 93.8438 21.9062C93.6979 21.9062 93.5417 21.8958 93.375 21.875C93.2083 21.8333 93.0521 21.7812 92.9062 21.7188C92.7812 21.6562 92.7188 21.5729 92.7188 21.4688V19.3125ZM98.6562 19.3125C98.9688 19.3125 99.5312 19.3229 100.344 19.3438C101.156 19.3438 102.021 19.3542 102.938 19.375C103.875 19.375 104.75 19.3854 105.562 19.4062C106.396 19.4271 106.969 19.4375 107.281 19.4375C107.385 19.4375 107.573 19.4583 107.844 19.5C108.115 19.5417 108.396 19.5833 108.688 19.625C109 19.6667 109.292 19.7083 109.562 19.75C109.833 19.7917 110.021 19.8229 110.125 19.8438C110.146 19.8854 110.156 19.9896 110.156 20.1562C110.156 20.3229 110.156 20.4271 110.156 20.4688C110.156 20.5312 110.156 20.6146 110.156 20.7188C110.156 20.8229 110.146 20.9375 110.125 21.0625C110.104 21.1667 110.062 21.2604 110 21.3438C109.938 21.4271 109.844 21.4688 109.719 21.4688H99.1875C99.1458 21.4688 99.0729 21.4167 98.9688 21.3125C98.8646 21.1875 98.8125 21.1042 98.8125 21.0625C98.7917 21 98.7708 20.8854 98.75 20.7188C98.7292 20.5521 98.7083 20.375 98.6875 20.1875C98.6875 20 98.6771 19.8229 98.6562 19.6562C98.6562 19.4896 98.6562 19.375 98.6562 19.3125Z" fill="white"/>
</svg>
