<svg width="88" height="46" viewBox="0 0 88 46" fill="none" xmlns="http://www.w3.org/2000/svg">
<path d="M0 26.375C0 25.6042 0.208333 24.7708 0.625 23.875C1.0625 22.9792 1.53125 22.0833 2.03125 21.1875C2.55208 20.2708 3.02083 19.375 3.4375 18.5C3.875 17.625 4.09375 16.8125 4.09375 16.0625C4.09375 15.7708 4.02083 15.5 3.875 15.25C3.75 14.9792 3.60417 14.7188 3.4375 14.4688C3.29167 14.1979 3.15625 13.9375 3.03125 13.6875C2.90625 13.4167 2.84375 13.125 2.84375 12.8125C2.84375 12.4583 2.97917 12.1146 3.25 11.7812C3.54167 11.4479 3.86458 11.2812 4.21875 11.2812C4.21875 11.4688 4.22917 11.6979 4.25 11.9688C4.27083 12.2188 4.3125 12.4688 4.375 12.7188C4.45833 12.9688 4.57292 13.1979 4.71875 13.4062C4.86458 13.5938 5.0625 13.7292 5.3125 13.8125C5.52083 13.25 5.83333 12.5208 6.25 11.625C6.6875 10.7083 7.19792 9.73958 7.78125 8.71875C8.38542 7.67708 9.03125 6.64583 9.71875 5.625C10.4271 4.58333 11.1458 3.64583 11.875 2.8125C12.625 1.97917 13.375 1.30208 14.125 0.78125C14.875 0.260417 15.5833 0 16.25 0C16.75 0 17.1771 0.104167 17.5312 0.3125C17.9062 0.520833 18.2083 0.802083 18.4375 1.15625C18.6667 1.48958 18.8333 1.875 18.9375 2.3125C19.0417 2.75 19.0938 3.19792 19.0938 3.65625C19.0938 5.34375 18.7292 6.92708 18 8.40625C17.2917 9.86458 16.3438 11.1562 15.1562 12.2812C13.9896 13.3854 12.6562 14.2917 11.1562 15C9.65625 15.6875 8.11458 16.1042 6.53125 16.25L5.6875 17.4688L2.0625 26.375C1.89583 26.7292 1.71875 26.9583 1.53125 27.0625C1.36458 27.1667 1.14583 27.2188 0.875 27.2188C0.291667 27.2188 0 26.9375 0 26.375ZM15.8438 2.03125C15.2604 2.03125 14.6562 2.25 14.0312 2.6875C13.4271 3.10417 12.8229 3.65625 12.2188 4.34375C11.6146 5.03125 11.0417 5.80208 10.5 6.65625C9.95833 7.51042 9.47917 8.36458 9.0625 9.21875C8.64583 10.0521 8.3125 10.8438 8.0625 11.5938C7.83333 12.3438 7.71875 12.9583 7.71875 13.4375C7.71875 13.4792 7.71875 13.6042 7.71875 13.8125C7.73958 14.0208 7.75 14.1562 7.75 14.2188C9.0625 14.1562 10.2917 13.8021 11.4375 13.1562C12.5833 12.4896 13.5729 11.6458 14.4062 10.625C15.2396 9.60417 15.8958 8.46875 16.375 7.21875C16.8542 5.94792 17.0938 4.6875 17.0938 3.4375C17.0938 2.85417 17.0312 2.47917 16.9062 2.3125C16.7812 2.125 16.4271 2.03125 15.8438 2.03125ZM19.2812 24.7812C19.2812 24.1562 19.4062 23.5833 19.6562 23.0625C19.9271 22.5208 20.2188 22.0104 20.5312 21.5312C20.8438 21.0521 21.125 20.5729 21.375 20.0938C21.6458 19.6146 21.7812 19.1042 21.7812 18.5625C21.7812 18.4375 21.7708 18.2917 21.75 18.125C21.75 17.9375 21.7292 17.7604 21.6875 17.5938C21.6667 17.4271 21.6042 17.2917 21.5 17.1875C21.4167 17.0625 21.3021 17 21.1562 17C21.1354 17 21.0938 17.0104 21.0312 17.0312C20.9896 17.0312 20.9688 17.0417 20.9688 17.0625C20.6771 17.4583 20.3229 17.9062 19.9062 18.4062C19.5104 18.8854 19.0833 19.3646 18.625 19.8438C18.1667 20.3229 17.7188 20.7812 17.2812 21.2188C16.8438 21.6562 16.4479 22.0208 16.0938 22.3125C15.8438 22.5417 15.5 22.8542 15.0625 23.25C14.6458 23.6458 14.2188 24.0417 13.7812 24.4375C13.3646 24.8125 12.9896 25.1458 12.6562 25.4375C12.3438 25.7292 12.1667 25.875 12.125 25.875L10.6875 24.6562C10.875 24.6562 11.0625 24.6146 11.25 24.5312C11.4167 24.4479 11.5833 24.3542 11.75 24.25C13 23.4167 14.125 22.4583 15.125 21.375C16.1458 20.2917 17.1458 19.125 18.125 17.875C18.1667 17.8125 18.2708 17.6354 18.4375 17.3438C18.625 17.0312 18.8229 16.6875 19.0312 16.3125C19.2396 15.9167 19.4479 15.5312 19.6562 15.1562C19.8646 14.7604 20.0208 14.4479 20.125 14.2188C20.25 13.9479 20.3229 13.7292 20.3438 13.5625C20.3854 13.3958 20.4167 13.2708 20.4375 13.1875C20.4792 13.0833 20.5417 13.0104 20.625 12.9688C20.7083 12.9271 20.8854 12.9062 21.1562 12.9062C21.1979 12.9062 21.2917 12.9167 21.4375 12.9375C21.6042 12.9583 21.7083 12.9792 21.75 13C22.0208 13.5625 22.2604 14.0625 22.4688 14.5C22.6771 14.9375 22.8542 15.3542 23 15.75C23.1458 16.125 23.25 16.5104 23.3125 16.9062C23.3958 17.3021 23.4375 17.7396 23.4375 18.2188C23.1667 18.9062 22.8646 19.6146 22.5312 20.3438C22.1979 21.0521 21.9167 21.7292 21.6875 22.375C21.4583 23.0208 21.3125 23.6042 21.25 24.125C21.2083 24.6458 21.3229 25.0625 21.5938 25.375C21.8854 25.6667 22.3646 25.8229 23.0312 25.8438C23.7188 25.8646 24.6875 25.6875 25.9375 25.3125C26.2708 25.4792 26.3021 25.6875 26.0312 25.9375C25.7604 26.1667 25.3438 26.3854 24.7812 26.5938C24.2396 26.8021 23.6354 26.9792 22.9688 27.125C22.3229 27.25 21.7812 27.2812 21.3438 27.2188C20.9479 27.2188 20.6146 27.1562 20.3438 27.0312C20.0938 26.8854 19.8854 26.6979 19.7188 26.4688C19.5729 26.2396 19.4583 25.9792 19.375 25.6875C19.3125 25.3958 19.2812 25.0938 19.2812 24.7812ZM24.75 24.5625C24.75 24.4792 24.75 24.3125 24.75 24.0625C24.7708 23.7917 24.7812 23.6146 24.7812 23.5312C25.4479 22.0104 26.3021 20.6042 27.3438 19.3125C28.3854 18.0208 29.5625 16.875 30.875 15.875C30.9167 15.875 30.9792 15.8646 31.0625 15.8438C31.1667 15.8021 31.2396 15.7812 31.2812 15.7812C31.8438 15.7812 32.3021 15.9062 32.6562 16.1562C33.0312 16.3854 33.3229 16.6979 33.5312 17.0938C33.7604 17.4688 33.9167 17.8958 34 18.375C34.0833 18.8333 34.125 19.2812 34.125 19.7188C34.125 20.5312 33.9375 21.3854 33.5625 22.2812C33.1875 23.1562 32.6771 23.9688 32.0312 24.7188C31.4062 25.4479 30.6875 26.0521 29.875 26.5312C29.0625 26.9896 28.2188 27.2188 27.3438 27.2188C26.4688 27.2188 25.8125 26.9896 25.375 26.5312C24.9583 26.0521 24.75 25.3958 24.75 24.5625ZM27.1875 24.1875C27.1875 24.4167 27.2812 24.5729 27.4688 24.6562C27.6562 24.7396 27.8438 24.7812 28.0312 24.7812C28.5521 24.7812 29.0521 24.6458 29.5312 24.375C30.0312 24.0833 30.4688 23.7292 30.8438 23.3125C31.2396 22.875 31.5521 22.3958 31.7812 21.875C32.0104 21.3542 32.125 20.8542 32.125 20.375C32.125 20.1458 32.1042 19.8958 32.0625 19.625C32.0417 19.3333 31.9792 19.0833 31.875 18.875C31.7708 18.6458 31.6042 18.4688 31.375 18.3438C31.1667 18.2188 30.8646 18.1979 30.4688 18.2812C30.1771 18.3438 29.8438 18.6146 29.4688 19.0938C29.0938 19.5729 28.7292 20.1354 28.375 20.7812C28.0417 21.4062 27.7604 22.0417 27.5312 22.6875C27.3021 23.3125 27.1875 23.8125 27.1875 24.1875ZM23.75 41.4062C23.75 40.5312 23.8958 39.6979 24.1875 38.9062C24.4792 38.1146 24.8542 37.3646 25.3125 36.6562C25.7708 35.9479 26.2917 35.2708 26.875 34.625C27.4583 34 28.0417 33.4062 28.625 32.8438C28.8333 32.6354 29.1667 32.3229 29.625 31.9062C30.0833 31.5104 30.6042 31.0521 31.1875 30.5312C31.7708 30.0312 32.3854 29.5 33.0312 28.9375C33.6771 28.3958 34.3021 27.875 34.9062 27.375C35.4896 26.875 36.0104 26.4271 36.4688 26.0312C36.9479 25.6354 37.3021 25.3438 37.5312 25.1562C37.5938 24.9479 37.7083 24.6354 37.875 24.2188C38.0417 23.8021 38.2292 23.3229 38.4375 22.7812C38.6667 22.2396 38.8958 21.6771 39.125 21.0938C39.3542 20.5104 39.5729 19.9583 39.7812 19.4375C40.0104 18.8958 40.2083 18.4167 40.375 18C40.5625 17.5833 40.6979 17.2708 40.7812 17.0625C40.8854 16.8125 41.0104 16.5521 41.1562 16.2812C41.3229 15.9896 41.5 15.7188 41.6875 15.4688C41.8958 15.2188 42.125 15.0104 42.375 14.8438C42.6458 14.6771 42.9375 14.5938 43.25 14.5938C43.25 15.2604 43.1354 16 42.9062 16.8125C42.6979 17.625 42.4375 18.4271 42.125 19.2188C41.8125 20.0104 41.4896 20.75 41.1562 21.4375C40.8438 22.125 40.5833 22.6875 40.375 23.125C40.4167 23.125 40.4792 23.1354 40.5625 23.1562C40.6667 23.1562 40.7396 23.1562 40.7812 23.1562C41.3229 23.1562 41.8333 23.0833 42.3125 22.9375C42.8125 22.7917 43.3333 22.7188 43.875 22.7188C44.0417 22.7188 44.2188 22.7292 44.4062 22.75C44.6146 22.7708 44.75 22.8958 44.8125 23.125C44.5833 23.5833 44.2292 23.9062 43.75 24.0938C43.2708 24.2812 42.75 24.4375 42.1875 24.5625C41.6458 24.6875 41.125 24.8438 40.625 25.0312C40.1458 25.2188 39.8021 25.5312 39.5938 25.9688C39.4688 26.2188 39.2708 26.6146 39 27.1562C38.75 27.6771 38.4583 28.2604 38.125 28.9062C37.8125 29.5729 37.4688 30.2708 37.0938 31C36.7396 31.75 36.4062 32.4583 36.0938 33.125C35.7812 33.7917 35.5 34.3958 35.25 34.9375C35 35.4792 34.8229 35.875 34.7188 36.125C34.3646 36.875 33.9896 37.7604 33.5938 38.7812C33.1771 39.8021 32.6875 40.7708 32.125 41.6875C31.5417 42.625 30.8542 43.4167 30.0625 44.0625C29.2708 44.7083 28.3229 45.0312 27.2188 45.0312C26.6979 45.0312 26.2292 44.9271 25.8125 44.7188C25.375 44.5312 25.0104 44.2708 24.7188 43.9375C24.4062 43.6042 24.1667 43.2188 24 42.7812C23.8333 42.3438 23.75 41.8854 23.75 41.4062ZM25.3438 40.9062C25.3438 41.2188 25.3646 41.5208 25.4062 41.8125C25.4271 42.1042 25.5 42.3646 25.625 42.5938C25.7292 42.8438 25.8958 43.0417 26.125 43.1875C26.3333 43.3333 26.6354 43.4062 27.0312 43.4062C27.8021 43.4062 28.5312 43.125 29.2188 42.5625C29.9062 42.0208 30.5312 41.3646 31.0938 40.5938C31.6354 39.8438 32.1146 39.0521 32.5312 38.2188C32.9479 37.3854 33.2708 36.6875 33.5 36.125C33.6458 35.7708 33.8125 35.3438 34 34.8438C34.1875 34.3646 34.3854 33.8542 34.5938 33.3125C34.8021 32.7708 35.0104 32.2292 35.2188 31.6875C35.4271 31.1667 35.6042 30.6979 35.75 30.2812C35.9167 29.8646 36.0521 29.5208 36.1562 29.25C36.2604 28.9792 36.3125 28.8333 36.3125 28.8125V28C36.2708 28.0417 36.1875 28.0938 36.0625 28.1562C35.9375 28.2396 35.8125 28.3229 35.6875 28.4062C35.5625 28.4896 35.4375 28.5625 35.3125 28.625C35.2083 28.7083 35.1354 28.7708 35.0938 28.8125C34.9271 28.9583 34.6667 29.1979 34.3125 29.5312C33.9375 29.8854 33.5312 30.2708 33.0938 30.6875C32.6354 31.1042 32.1562 31.5417 31.6562 32C31.1562 32.4792 30.6875 32.9271 30.25 33.3438C29.7917 33.7812 29.3854 34.1667 29.0312 34.5C28.6562 34.8542 28.3854 35.1146 28.2188 35.2812C27.9271 35.7604 27.6146 36.2083 27.2812 36.625C26.9479 37.0417 26.6458 37.4688 26.375 37.9062C26.0833 38.3438 25.8438 38.8021 25.6562 39.2812C25.4479 39.7604 25.3438 40.3021 25.3438 40.9062ZM45.625 3.0625C45.625 2.91667 45.6771 2.79167 45.7812 2.6875C45.8854 2.5625 46.0104 2.45833 46.1562 2.375C46.3229 2.27083 46.4896 2.19792 46.6562 2.15625C46.8229 2.09375 46.9583 2.0625 47.0625 2.0625C47.375 2.0625 47.5625 2.1875 47.625 2.4375C47.6875 2.66667 47.7188 2.89583 47.7188 3.125C47.7188 3.52083 47.6042 3.86458 47.375 4.15625C47.1667 4.42708 46.8542 4.5625 46.4375 4.5625C46.25 4.5625 46.0938 4.52083 45.9688 4.4375C45.8646 4.33333 45.7812 4.20833 45.7188 4.0625C45.6771 3.89583 45.6458 3.72917 45.625 3.5625C45.625 3.39583 45.625 3.22917 45.625 3.0625ZM43.8125 25.5625C43.4583 24.7708 43.3021 24 43.3438 23.25C43.3854 22.4792 43.5521 21.7604 43.8438 21.0938C44.1562 20.4062 44.5521 19.7917 45.0312 19.25C45.5312 18.6875 46.0625 18.2083 46.625 17.8125C47.1875 17.3958 47.75 17.0833 48.3125 16.875C48.8958 16.6667 49.4062 16.5833 49.8438 16.625C50.2812 16.6458 50.625 16.8021 50.875 17.0938C51.125 17.3854 51.2083 17.8333 51.125 18.4375C51.125 19.25 50.8646 19.9583 50.3438 20.5625C49.8438 21.1667 49.2812 21.7083 48.6562 22.1875C48.0521 22.6667 47.4896 23.1042 46.9688 23.5C46.4688 23.875 46.2188 24.2292 46.2188 24.5625C46.2188 24.75 46.3229 24.8958 46.5312 25C46.7604 25.1042 47.0208 25.1875 47.3125 25.25C47.6042 25.2917 47.8958 25.3229 48.1875 25.3438C48.4792 25.3646 48.6875 25.3854 48.8125 25.4062C50.7708 24.9896 52.2396 24.7396 53.2188 24.6562C54.1979 24.5521 54.8125 24.5625 55.0625 24.6875C55.3125 24.7917 55.2604 24.9688 54.9062 25.2188C54.5729 25.4479 54.0521 25.6979 53.3438 25.9688C52.6354 26.2188 51.8125 26.4479 50.875 26.6562C49.9375 26.8646 49.0104 26.9896 48.0938 27.0312C47.1771 27.0521 46.3229 26.9583 45.5312 26.75C44.7604 26.5417 44.1875 26.1458 43.8125 25.5625ZM49.2812 18.4375C48.8646 18.4375 48.4688 18.5521 48.0938 18.7812C47.7188 19.0104 47.375 19.3021 47.0625 19.6562C46.7708 19.9896 46.5208 20.3646 46.3125 20.7812C46.1042 21.1771 45.9479 21.5521 45.8438 21.9062C45.8854 21.9271 45.9167 21.9375 45.9375 21.9375H46.0312C46.3229 21.9375 46.6562 21.8125 47.0312 21.5625C47.4062 21.3125 47.7604 21.0104 48.0938 20.6562C48.4271 20.2812 48.7083 19.8958 48.9375 19.5C49.1667 19.1042 49.2812 18.75 49.2812 18.4375ZM61.9375 15.875C61.4583 15.9375 60.9062 16.2396 60.2812 16.7812C59.6562 17.3021 59.0521 17.9479 58.4688 18.7188C57.9062 19.4688 57.4271 20.2917 57.0312 21.1875C56.6354 22.0625 56.4375 22.875 56.4375 23.625C56.4375 24.2292 56.5938 24.6562 56.9062 24.9062C57.2188 25.1354 57.6667 25.25 58.25 25.25C58.875 25.25 59.4792 25.1771 60.0625 25.0312C60.6667 24.8646 61.2604 24.6979 61.8438 24.5312C62.4479 24.3438 63.0417 24.1771 63.625 24.0312C64.2292 23.8646 64.8438 23.7812 65.4688 23.7812C65.4688 24.0729 65.4271 24.3229 65.3438 24.5312C65.2604 24.7188 65.1354 24.9271 64.9688 25.1562C63.8854 25.6771 62.7708 26.1562 61.625 26.5938C60.4792 27.0104 59.2812 27.2188 58.0312 27.2188C57.6562 27.2188 57.2604 27.1562 56.8438 27.0312C56.4271 26.8854 56.0417 26.6875 55.6875 26.4375C55.3333 26.1875 55.0312 25.8854 54.7812 25.5312C54.5521 25.1771 54.4375 24.7812 54.4375 24.3438C54.4375 23.4062 54.5729 22.5 54.8438 21.625C55.1146 20.7292 55.4896 19.8854 55.9688 19.0938C56.4479 18.3021 57.0208 17.5729 57.6875 16.9062C58.375 16.2396 59.1146 15.6562 59.9062 15.1562V15.125C60.2188 14.9375 60.5729 14.7604 60.9688 14.5938C61.3854 14.4062 61.7708 14.3021 62.125 14.2812C62.4792 14.2396 62.7708 14.3229 63 14.5312C63.25 14.7188 63.375 15.0833 63.375 15.625C63.375 15.875 63.3542 16.2083 63.3125 16.625C63.2708 17.0208 63.1562 17.3021 62.9688 17.4688C62.8021 17.5729 62.5833 17.6667 62.3125 17.75C62.1875 17.7917 62.0625 17.8229 61.9375 17.8438V15.875ZM65.0938 24.1562C65.0938 23.5521 65.2083 22.9479 65.4375 22.3438C65.6667 21.7396 65.9375 21.1458 66.25 20.5625C66.5625 19.9583 66.875 19.3646 67.1875 18.7812C67.5208 18.1979 67.7708 17.625 67.9375 17.0625C67.5417 17.2917 67.1979 17.4271 66.9062 17.4688C66.6354 17.4896 66.3021 17.5 65.9062 17.5C65.8646 17.5 65.7292 17.5 65.5 17.5C65.2917 17.4792 65.1562 17.4688 65.0938 17.4688C65.2188 17.0104 65.4479 16.6042 65.7812 16.25C66.1146 15.875 66.4896 15.5625 66.9062 15.3125C67.3438 15.0417 67.7917 14.8229 68.25 14.6562C68.7292 14.4688 69.1562 14.3229 69.5312 14.2188C70.1562 13.2396 70.6667 12.2604 71.0625 11.2812C71.4583 10.2812 71.8542 9.3125 72.25 8.375C72.6667 7.41667 73.1458 6.51042 73.6875 5.65625C74.25 4.78125 75 3.97917 75.9375 3.25L76.0938 4.4375L72.1875 13.5938C72.4167 13.5312 72.6979 13.4688 73.0312 13.4062C73.3646 13.3438 73.6979 13.2812 74.0312 13.2188C74.3854 13.1562 74.7188 13.1042 75.0312 13.0625C75.3646 13 75.6458 12.9375 75.875 12.875C75.8958 12.875 75.9583 12.875 76.0625 12.875C76.1667 12.8542 76.25 12.8438 76.3125 12.8438C76.6042 12.8438 76.8438 12.8958 77.0312 13C77.2188 13.1042 77.375 13.3333 77.5 13.6875C76.0833 14.1042 74.8021 14.5417 73.6562 15C72.5104 15.4583 71.5104 16.0625 70.6562 16.8125C69.8229 17.5417 69.1354 18.4792 68.5938 19.625C68.0729 20.75 67.7083 22.1979 67.5 23.9688C67.5 24.3438 67.5208 24.6875 67.5625 25C67.6042 25.3125 67.8646 25.5 68.3438 25.5625C68.8229 25.5625 69.2708 25.4688 69.6875 25.2812C70.1042 25.0938 70.5104 24.8958 70.9062 24.6875C71.3021 24.4583 71.6979 24.25 72.0938 24.0625C72.5104 23.875 72.9583 23.7812 73.4375 23.7812C73.4375 24.2812 73.2188 24.7396 72.7812 25.1562C72.3438 25.5729 71.8125 25.9375 71.1875 26.25C70.5833 26.5625 69.9583 26.8021 69.3125 26.9688C68.6667 27.1354 68.1354 27.2188 67.7188 27.2188C67.3021 27.2188 66.9271 27.1354 66.5938 26.9688C66.2604 26.8021 65.9792 26.5833 65.75 26.3125C65.5417 26.0208 65.375 25.6875 65.25 25.3125C65.1458 24.9375 65.0938 24.5521 65.0938 24.1562ZM73.5312 23.7188C73.5312 23.3229 73.5833 22.9792 73.6875 22.6875C73.8125 22.3958 74.1146 22.25 74.5938 22.25C74.6354 22.25 74.7292 22.2604 74.875 22.2812C75.0417 22.2812 75.1562 22.2917 75.2188 22.3125C75.1979 23.2917 75.3542 24.0312 75.6875 24.5312C76.0208 25.0104 76.6458 25.25 77.5625 25.25C78.3125 25.25 79.0521 25.1354 79.7812 24.9062C80.5104 24.6771 81.1667 24.3438 81.75 23.9062C82.3542 23.4479 82.8333 22.8958 83.1875 22.25C83.5625 21.6042 83.75 20.875 83.75 20.0625C83.75 19.5625 83.5729 19.2083 83.2188 19C82.8854 18.7917 82.5104 18.625 82.0938 18.5C81.6771 18.375 81.2917 18.2396 80.9375 18.0938C80.6042 17.9271 80.4375 17.6458 80.4375 17.25C80.4375 16.7708 80.7292 16.3125 81.3125 15.875C81.8958 15.4375 82.5833 15.0521 83.375 14.7188C84.1667 14.3646 84.9479 14.0938 85.7188 13.9062C86.5104 13.6979 87.1146 13.5938 87.5312 13.5938C87.5312 14.1979 87.3958 14.625 87.125 14.875C86.875 15.125 86.5625 15.3229 86.1875 15.4688C85.8125 15.6146 85.4271 15.7604 85.0312 15.9062C84.6562 16.0312 84.3438 16.2812 84.0938 16.6562C84.4271 16.9271 84.6979 17.1771 84.9062 17.4062C85.1354 17.6146 85.3125 17.8438 85.4375 18.0938C85.5625 18.3438 85.6458 18.625 85.6875 18.9375C85.7292 19.2292 85.75 19.5833 85.75 20C85.75 21.0833 85.5104 22.0729 85.0312 22.9688C84.5729 23.8438 83.9688 24.6042 83.2188 25.25C82.4688 25.875 81.6146 26.3646 80.6562 26.7188C79.6979 27.0521 78.7188 27.2188 77.7188 27.2188C77.1771 27.2188 76.6458 27.1562 76.125 27.0312C75.625 26.8854 75.1771 26.6667 74.7812 26.375C74.4062 26.0833 74.1042 25.7188 73.875 25.2812C73.6458 24.8438 73.5312 24.3229 73.5312 23.7188Z" fill="currentColor"/>
</svg>
