<svg width="99" height="45" viewBox="0 0 99 45" fill="none" xmlns="http://www.w3.org/2000/svg">
<path d="M0.75 22.1562C0.75 22.0312 0.760417 21.8333 0.78125 21.5625C0.802083 21.2917 0.8125 21.1354 0.8125 21.0938C1.22917 19.4062 1.57292 17.9583 1.84375 16.75C2.13542 15.5417 2.375 14.5208 2.5625 13.6875C2.75 12.8542 2.89583 12.1875 3 11.6875C3.10417 11.1875 3.17708 10.8021 3.21875 10.5312C3.26042 10.2396 3.28125 10.0417 3.28125 9.9375C3.30208 9.8125 3.3125 9.71875 3.3125 9.65625C3.3125 9.53125 3.3125 9.3125 3.3125 9C3.33333 8.6875 3.32292 8.375 3.28125 8.0625C3.23958 7.72917 3.15625 7.44792 3.03125 7.21875C2.92708 6.96875 2.73958 6.84375 2.46875 6.84375C2.19792 6.84375 1.96875 6.9375 1.78125 7.125C1.61458 7.29167 1.44792 7.46875 1.28125 7.65625C1.11458 7.82292 0.927083 7.96875 0.71875 8.09375C0.53125 8.21875 0.291667 8.22917 0 8.125C0.291667 7.25 0.65625 6.625 1.09375 6.25C1.55208 5.875 2.21875 5.6875 3.09375 5.6875C3.61458 5.6875 4 5.79167 4.25 6C4.52083 6.1875 4.69792 6.44792 4.78125 6.78125C4.88542 7.09375 4.9375 7.45833 4.9375 7.875C4.9375 8.29167 4.9375 8.71875 4.9375 9.15625C4.9375 9.94792 4.86458 10.7292 4.71875 11.5C4.59375 12.2708 4.44792 13.0417 4.28125 13.8125C4.11458 14.5833 3.95833 15.3542 3.8125 16.125C3.6875 16.8958 3.625 17.6771 3.625 18.4688C3.625 18.5104 3.625 18.6146 3.625 18.7812C3.64583 18.9271 3.65625 19.0208 3.65625 19.0625L4.0625 18.6562C5.77083 16.2188 7.13542 14.2396 8.15625 12.7188C9.19792 11.1979 10.0208 10.0104 10.625 9.15625C11.2292 8.28125 11.6979 7.6875 12.0312 7.375C12.3646 7.0625 12.6771 6.90625 12.9688 6.90625C13.2396 6.90625 13.4479 6.97917 13.5938 7.125C13.7604 7.27083 13.8854 7.44792 13.9688 7.65625C14.0521 7.86458 14.1042 8.09375 14.125 8.34375C14.1667 8.57292 14.1875 8.78125 14.1875 8.96875V18.6562H14.5938L25.5 2.0625C26.0625 1.22917 26.6458 0.6875 27.25 0.4375C27.8542 0.166667 28.625 0.166667 29.5625 0.4375L26.3438 3.6875C24.5938 6.375 23.1146 8.70833 21.9062 10.6875C20.7188 12.6458 19.7188 14.3229 18.9062 15.7188C18.1146 17.0938 17.4688 18.2188 16.9688 19.0938C16.4896 19.9479 16.0833 20.625 15.75 21.125C15.4167 21.6042 15.125 21.9375 14.875 22.125C14.625 22.2917 14.3333 22.375 14 22.375C13.4375 22.375 13.0208 22.1979 12.75 21.8438C12.5 21.4896 12.3229 21.0729 12.2188 20.5938C12.1354 20.0938 12.0938 19.5833 12.0938 19.0625C12.1146 18.5417 12.125 18.1146 12.125 17.7812C12.125 17.0312 12.125 16.3542 12.125 15.75C12.1458 15.125 12.1667 14.5104 12.1875 13.9062C12.2292 13.3021 12.2708 12.6771 12.3125 12.0312C12.375 11.3646 12.4583 10.6042 12.5625 9.75C10.6875 12.6042 9.14583 14.9167 7.9375 16.6875C6.75 18.4583 5.78125 19.8333 5.03125 20.8125C4.28125 21.7917 3.6875 22.4583 3.25 22.8125C2.83333 23.1458 2.44792 23.3125 2.09375 23.3125C1.53125 23.3125 1.16667 23.2292 1 23.0625C0.833333 22.875 0.75 22.5729 0.75 22.1562ZM28.375 21.5312C28.375 20.9062 28.5 20.3333 28.75 19.8125C29.0208 19.2708 29.3125 18.7604 29.625 18.2812C29.9375 17.8021 30.2188 17.3229 30.4688 16.8438C30.7396 16.3646 30.875 15.8542 30.875 15.3125C30.875 15.1875 30.8646 15.0417 30.8438 14.875C30.8438 14.6875 30.8229 14.5104 30.7812 14.3438C30.7604 14.1771 30.6979 14.0417 30.5938 13.9375C30.5104 13.8125 30.3958 13.75 30.25 13.75C30.2292 13.75 30.1875 13.7604 30.125 13.7812C30.0833 13.7812 30.0625 13.7917 30.0625 13.8125C29.7708 14.2083 29.4167 14.6562 29 15.1562C28.6042 15.6354 28.1771 16.1146 27.7188 16.5938C27.2604 17.0729 26.8125 17.5312 26.375 17.9688C25.9375 18.4062 25.5417 18.7708 25.1875 19.0625C24.9375 19.2917 24.5938 19.6042 24.1562 20C23.7396 20.3958 23.3125 20.7917 22.875 21.1875C22.4583 21.5625 22.0833 21.8958 21.75 22.1875C21.4375 22.4792 21.2604 22.625 21.2188 22.625L19.7812 21.4062C19.9688 21.4062 20.1562 21.3646 20.3438 21.2812C20.5104 21.1979 20.6771 21.1042 20.8438 21C22.0938 20.1667 23.2188 19.2083 24.2188 18.125C25.2396 17.0417 26.2396 15.875 27.2188 14.625C27.2604 14.5625 27.3646 14.3854 27.5312 14.0938C27.7188 13.7812 27.9167 13.4375 28.125 13.0625C28.3333 12.6667 28.5417 12.2812 28.75 11.9062C28.9583 11.5104 29.1146 11.1979 29.2188 10.9688C29.3438 10.6979 29.4167 10.4792 29.4375 10.3125C29.4792 10.1458 29.5104 10.0208 29.5312 9.9375C29.5729 9.83333 29.6354 9.76042 29.7188 9.71875C29.8021 9.67708 29.9792 9.65625 30.25 9.65625C30.2917 9.65625 30.3854 9.66667 30.5312 9.6875C30.6979 9.70833 30.8021 9.72917 30.8438 9.75C31.1146 10.3125 31.3542 10.8125 31.5625 11.25C31.7708 11.6875 31.9479 12.1042 32.0938 12.5C32.2396 12.875 32.3438 13.2604 32.4062 13.6562C32.4896 14.0521 32.5312 14.4896 32.5312 14.9688C32.2604 15.6562 31.9583 16.3646 31.625 17.0938C31.2917 17.8021 31.0104 18.4792 30.7812 19.125C30.5521 19.7708 30.4062 20.3542 30.3438 20.875C30.3021 21.3958 30.4167 21.8125 30.6875 22.125C30.9792 22.4167 31.4583 22.5729 32.125 22.5938C32.8125 22.6146 33.7812 22.4375 35.0312 22.0625C35.3646 22.2292 35.3958 22.4375 35.125 22.6875C34.8542 22.9167 34.4375 23.1354 33.875 23.3438C33.3333 23.5521 32.7292 23.7292 32.0625 23.875C31.4167 24 30.875 24.0312 30.4375 23.9688C30.0417 23.9688 29.7083 23.9062 29.4375 23.7812C29.1875 23.6354 28.9792 23.4479 28.8125 23.2188C28.6667 22.9896 28.5521 22.7292 28.4688 22.4375C28.4062 22.1458 28.375 21.8438 28.375 21.5312ZM33.4375 21.9062C33.4375 21.6146 33.4688 21.3646 33.5312 21.1562C33.5938 20.9271 33.7083 20.6354 33.875 20.2812C34.0208 20.0729 34.2812 19.6771 34.6562 19.0938C35.0521 18.5104 35.4583 17.8958 35.875 17.25C36.3125 16.6042 36.7188 16 37.0938 15.4375C37.4896 14.8542 37.7604 14.4479 37.9062 14.2188C38.0938 13.9479 38.2396 13.8021 38.3438 13.7812C38.4479 13.7604 38.6458 13.75 38.9375 13.75C39.125 13.75 39.3229 13.7604 39.5312 13.7812C39.7604 13.8021 39.9062 13.9479 39.9688 14.2188C39.6771 14.9271 39.2812 15.6042 38.7812 16.25C38.3021 16.875 37.8229 17.5 37.3438 18.125C36.8854 18.75 36.4792 19.3958 36.125 20.0625C35.7708 20.7083 35.5938 21.4062 35.5938 22.1562C35.6771 22.1562 35.8021 22.1667 35.9688 22.1875C36.1562 22.2083 36.3542 22.2292 36.5625 22.25C36.7708 22.2708 36.9583 22.2917 37.125 22.3125C37.3125 22.3333 37.4479 22.3333 37.5312 22.3125C37.6562 22.2917 37.8646 22.25 38.1562 22.1875C38.4688 22.1042 38.7917 22.0208 39.125 21.9375C39.4792 21.8542 39.8125 21.7708 40.125 21.6875C40.4375 21.6042 40.6562 21.5417 40.7812 21.5C40.7812 21.5417 40.7812 21.6146 40.7812 21.7188C40.8021 21.8021 40.8125 21.8646 40.8125 21.9062C40.8125 22.3229 40.6146 22.6667 40.2188 22.9375C39.8438 23.2083 39.3958 23.4271 38.875 23.5938C38.375 23.7396 37.8542 23.8438 37.3125 23.9062C36.7917 23.9479 36.3854 23.9688 36.0938 23.9688C35.7812 23.9688 35.4583 23.9375 35.125 23.875C34.8125 23.7917 34.5312 23.6667 34.2812 23.5C34.0312 23.3333 33.8229 23.125 33.6562 22.875C33.5104 22.6042 33.4375 22.2812 33.4375 21.9062ZM42.5312 3.59375C42.8021 3.59375 43.0521 3.60417 43.2812 3.625C43.5104 3.64583 43.7083 3.69792 43.875 3.78125C44.0417 3.86458 44.1771 3.98958 44.2812 4.15625C44.3854 4.32292 44.4375 4.55208 44.4375 4.84375C44.4375 4.96875 44.4375 5.10417 44.4375 5.25C44.4375 5.39583 44.4167 5.54167 44.375 5.6875C44.3542 5.8125 44.3021 5.92708 44.2188 6.03125C44.1354 6.11458 44 6.15625 43.8125 6.15625C43.5208 6.15625 43.2812 6.05208 43.0938 5.84375C42.9271 5.63542 42.8021 5.39583 42.7188 5.125C42.6354 4.83333 42.5833 4.54167 42.5625 4.25C42.5417 3.95833 42.5312 3.73958 42.5312 3.59375ZM40.875 20.9062C40.875 20.3021 40.9896 19.6979 41.2188 19.0938C41.4479 18.4896 41.7188 17.8958 42.0312 17.3125C42.3438 16.7083 42.6562 16.1146 42.9688 15.5312C43.3021 14.9479 43.5521 14.375 43.7188 13.8125C43.3229 14.0417 42.9792 14.1771 42.6875 14.2188C42.4167 14.2396 42.0833 14.25 41.6875 14.25C41.6458 14.25 41.5104 14.25 41.2812 14.25C41.0729 14.2292 40.9375 14.2188 40.875 14.2188C41 13.7604 41.2292 13.3542 41.5625 13C41.8958 12.625 42.2708 12.3125 42.6875 12.0625C43.125 11.7917 43.5729 11.5729 44.0312 11.4062C44.5104 11.2188 44.9375 11.0729 45.3125 10.9688C45.9375 9.98958 46.4479 9.01042 46.8438 8.03125C47.2396 7.03125 47.6354 6.0625 48.0312 5.125C48.4479 4.16667 48.9271 3.26042 49.4688 2.40625C50.0312 1.53125 50.7812 0.729167 51.7188 0L51.875 1.1875L47.9688 10.3438C48.1979 10.2812 48.4792 10.2188 48.8125 10.1562C49.1458 10.0938 49.4792 10.0312 49.8125 9.96875C50.1667 9.90625 50.5 9.85417 50.8125 9.8125C51.1458 9.75 51.4271 9.6875 51.6562 9.625C51.6771 9.625 51.7396 9.625 51.8438 9.625C51.9479 9.60417 52.0312 9.59375 52.0938 9.59375C52.3854 9.59375 52.625 9.64583 52.8125 9.75C53 9.85417 53.1562 10.0833 53.2812 10.4375C51.8646 10.8542 50.5833 11.2917 49.4375 11.75C48.2917 12.2083 47.2917 12.8125 46.4375 13.5625C45.6042 14.2917 44.9167 15.2292 44.375 16.375C43.8542 17.5 43.4896 18.9479 43.2812 20.7188C43.2812 21.0938 43.3021 21.4375 43.3438 21.75C43.3854 22.0625 43.6458 22.25 44.125 22.3125C44.6042 22.3125 45.0521 22.2188 45.4688 22.0312C45.8854 21.8438 46.2917 21.6458 46.6875 21.4375C47.0833 21.2083 47.4792 21 47.875 20.8125C48.2917 20.625 48.7396 20.5312 49.2188 20.5312C49.2188 21.0312 49 21.4896 48.5625 21.9062C48.125 22.3229 47.5938 22.6875 46.9688 23C46.3646 23.3125 45.7396 23.5521 45.0938 23.7188C44.4479 23.8854 43.9167 23.9688 43.5 23.9688C43.0833 23.9688 42.7083 23.8854 42.375 23.7188C42.0417 23.5521 41.7604 23.3333 41.5312 23.0625C41.3229 22.7708 41.1562 22.4375 41.0312 22.0625C40.9271 21.6875 40.875 21.3021 40.875 20.9062ZM49.0938 21.9062C49.0938 21.6146 49.125 21.3646 49.1875 21.1562C49.25 20.9271 49.3646 20.6354 49.5312 20.2812C49.6771 20.0729 49.9375 19.6771 50.3125 19.0938C50.7083 18.5104 51.1146 17.8958 51.5312 17.25C51.9688 16.6042 52.375 16 52.75 15.4375C53.1458 14.8542 53.4167 14.4479 53.5625 14.2188C53.75 13.9479 53.8958 13.8021 54 13.7812C54.1042 13.7604 54.3021 13.75 54.5938 13.75C54.7812 13.75 54.9792 13.7604 55.1875 13.7812C55.4167 13.8021 55.5625 13.9479 55.625 14.2188C55.3333 14.9271 54.9375 15.6042 54.4375 16.25C53.9583 16.875 53.4792 17.5 53 18.125C52.5417 18.75 52.1354 19.3958 51.7812 20.0625C51.4271 20.7083 51.25 21.4062 51.25 22.1562C51.3333 22.1562 51.4583 22.1667 51.625 22.1875C51.8125 22.2083 52.0104 22.2292 52.2188 22.25C52.4271 22.2708 52.6146 22.2917 52.7812 22.3125C52.9688 22.3333 53.1042 22.3333 53.1875 22.3125C53.3125 22.2917 53.5208 22.25 53.8125 22.1875C54.125 22.1042 54.4479 22.0208 54.7812 21.9375C55.1354 21.8542 55.4688 21.7708 55.7812 21.6875C56.0938 21.6042 56.3125 21.5417 56.4375 21.5C56.4375 21.5417 56.4375 21.6146 56.4375 21.7188C56.4583 21.8021 56.4688 21.8646 56.4688 21.9062C56.4688 22.3229 56.2708 22.6667 55.875 22.9375C55.5 23.2083 55.0521 23.4271 54.5312 23.5938C54.0312 23.7396 53.5104 23.8438 52.9688 23.9062C52.4479 23.9479 52.0417 23.9688 51.75 23.9688C51.4375 23.9688 51.1146 23.9375 50.7812 23.875C50.4688 23.7917 50.1875 23.6667 49.9375 23.5C49.6875 23.3333 49.4792 23.125 49.3125 22.875C49.1667 22.6042 49.0938 22.2812 49.0938 21.9062ZM58.1875 3.59375C58.4583 3.59375 58.7083 3.60417 58.9375 3.625C59.1667 3.64583 59.3646 3.69792 59.5312 3.78125C59.6979 3.86458 59.8333 3.98958 59.9375 4.15625C60.0417 4.32292 60.0938 4.55208 60.0938 4.84375C60.0938 4.96875 60.0938 5.10417 60.0938 5.25C60.0938 5.39583 60.0729 5.54167 60.0312 5.6875C60.0104 5.8125 59.9583 5.92708 59.875 6.03125C59.7917 6.11458 59.6562 6.15625 59.4688 6.15625C59.1771 6.15625 58.9375 6.05208 58.75 5.84375C58.5833 5.63542 58.4583 5.39583 58.375 5.125C58.2917 4.83333 58.2396 4.54167 58.2188 4.25C58.1979 3.95833 58.1875 3.73958 58.1875 3.59375ZM57.125 22.5312C57.125 22.3438 57.125 22.1979 57.125 22.0938C57.125 21.9896 57.1354 21.8958 57.1562 21.8125C57.1979 21.7083 57.25 21.6042 57.3125 21.5C57.375 21.3958 57.4583 21.2604 57.5625 21.0938C57.7292 20.8021 58.0417 20.2917 58.5 19.5625C58.9583 18.8333 59.4479 18.0625 59.9688 17.25C60.4896 16.4375 60.9792 15.6667 61.4375 14.9375C61.9167 14.2083 62.25 13.6979 62.4375 13.4062C62.4583 13.3854 62.5104 13.375 62.5938 13.375C62.6979 13.375 62.7708 13.375 62.8125 13.375C62.8542 13.375 62.9271 13.375 63.0312 13.375C63.1354 13.375 63.1979 13.3854 63.2188 13.4062C63.2396 13.4271 63.2812 13.4792 63.3438 13.5625C63.4271 13.6458 63.5104 13.7396 63.5938 13.8438C63.6979 13.9271 63.7812 14.0104 63.8438 14.0938C63.9271 14.1771 63.9896 14.2188 64.0312 14.2188C64.2188 14.2188 64.4167 14.1562 64.625 14.0312C64.8333 13.9062 65.0417 13.7708 65.25 13.625C65.4792 13.4583 65.7083 13.3125 65.9375 13.1875C66.1667 13.0625 66.4062 13 66.6562 13C66.9271 13 67.1771 13.0625 67.4062 13.1875C67.6354 13.3125 67.8333 13.4688 68 13.6562C68.1667 13.8438 68.2917 14.0521 68.375 14.2812C68.4792 14.5104 68.5312 14.7396 68.5312 14.9688C68.5312 15.4479 68.4583 15.9062 68.3125 16.3438C68.1875 16.7812 68.0417 17.2188 67.875 17.6562C67.7083 18.0729 67.5521 18.5 67.4062 18.9375C67.2812 19.3542 67.2188 19.7917 67.2188 20.25C67.2188 20.7083 67.2708 21.0417 67.375 21.25C67.4792 21.4375 67.7708 21.5312 68.25 21.5312C68.8125 21.5312 69.3438 21.4479 69.8438 21.2812C70.3646 21.1146 70.8958 21.0312 71.4375 21.0312C71.4375 21.5312 71.2812 21.9479 70.9688 22.2812C70.6771 22.6146 70.3021 22.8854 69.8438 23.0938C69.4062 23.2812 68.9271 23.4167 68.4062 23.5C67.9062 23.5625 67.4479 23.5938 67.0312 23.5938C66.2396 23.5938 65.6562 23.375 65.2812 22.9375C64.9271 22.4792 64.75 21.875 64.75 21.125C64.75 20.625 64.8333 20.1562 65 19.7188C65.1875 19.2812 65.3854 18.8542 65.5938 18.4375C65.8229 18.0208 66.0312 17.6042 66.2188 17.1875C66.4062 16.7708 66.5 16.3229 66.5 15.8438C66.5 15.7188 66.4792 15.5521 66.4375 15.3438C66.3958 15.1354 66.2604 15.0312 66.0312 15.0312C65.3438 15.0312 64.7188 15.25 64.1562 15.6875C63.6146 16.125 63.1146 16.6771 62.6562 17.3438C62.2188 18.0104 61.8125 18.7292 61.4375 19.5C61.0833 20.2708 60.7396 20.9896 60.4062 21.6562C60.0938 22.3229 59.7917 22.875 59.5 23.3125C59.2083 23.75 58.9062 23.9688 58.5938 23.9688C58.1562 23.9688 57.8021 23.8333 57.5312 23.5625C57.2604 23.2917 57.125 22.9479 57.125 22.5312ZM64.75 40.5312C64.75 39.3438 64.9583 38.2812 65.375 37.3438C65.7708 36.4062 66.3021 35.5312 66.9688 34.7188C67.6354 33.9271 68.3958 33.1875 69.25 32.5C70.1042 31.8333 70.9792 31.1771 71.875 30.5312C72.7708 29.9062 73.6458 29.2708 74.5 28.625C75.3542 27.9792 76.1146 27.2917 76.7812 26.5625C77.4479 25.8333 77.9792 25.0417 78.375 24.1875C78.7917 23.3333 79 22.3854 79 21.3438C79 21.3021 79 21.2083 79 21.0625C79 20.8958 78.9896 20.7917 78.9688 20.75C78.8229 20.875 78.5417 21.0625 78.125 21.3125C77.7083 21.5417 77.2604 21.7917 76.7812 22.0625C76.3229 22.3125 75.875 22.5417 75.4375 22.75C75 22.9583 74.6875 23.0938 74.5 23.1562C74.4792 23.1562 74.3958 23.1667 74.25 23.1875C74.125 23.2083 73.9688 23.2292 73.7812 23.25C73.6146 23.2708 73.4479 23.2917 73.2812 23.3125C73.1146 23.3125 72.9792 23.3125 72.875 23.3125C71.9375 23.1458 71.3125 22.8229 71 22.3438C70.6875 21.8438 70.6042 21.2604 70.75 20.5938C70.8958 19.9271 71.2188 19.2188 71.7188 18.4688C72.2396 17.6979 72.8542 16.9688 73.5625 16.2812C74.2917 15.5729 75.0729 14.9479 75.9062 14.4062C76.7604 13.8438 77.5833 13.4479 78.375 13.2188C79.1875 12.9688 79.9271 12.9167 80.5938 13.0625C81.2812 13.1875 81.8125 13.5938 82.1875 14.2812C82.3125 15.1562 82.3125 15.9792 82.1875 16.75C82.0625 17.5 81.8958 18.2396 81.6875 18.9688C81.4792 19.6979 81.2708 20.4375 81.0625 21.1875C80.8542 21.9167 80.7292 22.7188 80.6875 23.5938H80.9688C81.0938 23.4688 81.3021 23.25 81.5938 22.9375C81.9062 22.625 82.2292 22.3021 82.5625 21.9688C82.9167 21.6146 83.25 21.2917 83.5625 21C83.875 20.6875 84.0938 20.4688 84.2188 20.3438C84.2812 20.2812 84.4062 20.1979 84.5938 20.0938C84.8021 19.9896 84.9479 19.9375 85.0312 19.9375V20.0312V20.0938C85.0312 20.1146 85.0417 20.125 85.0625 20.125C85.0625 20.875 84.8438 21.5625 84.4062 22.1875C83.9896 22.8125 83.4792 23.3958 82.875 23.9375C82.2708 24.4792 81.6458 24.9792 81 25.4375C80.3542 25.9167 79.8125 26.375 79.375 26.8125C79.0208 27.5417 78.6354 28.4479 78.2188 29.5312C77.8021 30.6354 77.3438 31.8021 76.8438 33.0312C76.3438 34.2812 75.7812 35.5417 75.1562 36.8125C74.5521 38.1042 73.8646 39.2917 73.0938 40.375C72.3438 41.4583 71.5104 42.3854 70.5938 43.1562C69.6771 43.9479 68.6562 44.4583 67.5312 44.6875C66.9896 44.6875 66.5417 44.5521 66.1875 44.2812C65.8125 44.0104 65.5208 43.6667 65.3125 43.25C65.1042 42.8542 64.9583 42.4062 64.875 41.9062C64.7917 41.4271 64.75 40.9688 64.75 40.5312ZM66.4062 42.2188C66.5729 42.6146 66.7708 42.8542 67 42.9375C67.2292 43.0208 67.4896 43.0625 67.7812 43.0625C68.3229 43.0625 68.9167 42.7812 69.5625 42.2188C70.2083 41.6562 70.8542 40.9271 71.5 40.0312C72.1667 39.1562 72.8021 38.1771 73.4062 37.0938C74.0104 36.0104 74.5417 34.9583 75 33.9375C75.4792 32.9167 75.8542 31.9792 76.125 31.125C76.4167 30.2917 76.5625 29.6667 76.5625 29.25C76.5625 29.2083 76.5521 29.1354 76.5312 29.0312C76.5312 28.9479 76.5312 28.8854 76.5312 28.8438C76.4688 28.8854 76.3229 28.9479 76.0938 29.0312C75.8854 29.1354 75.7604 29.2083 75.7188 29.25C74.8438 29.8958 73.8542 30.6042 72.75 31.375C71.6667 32.1667 70.6562 33.0312 69.7188 33.9688C68.7604 34.9062 67.9583 35.9167 67.3125 37C66.6667 38.1042 66.3438 39.2917 66.3438 40.5625C66.3438 40.625 66.3438 40.7396 66.3438 40.9062C66.3438 41.0729 66.3542 41.2396 66.375 41.4062C66.375 41.5729 66.3854 41.7292 66.4062 41.875C66.4062 42.0417 66.4062 42.1562 66.4062 42.2188ZM80.1875 14.6562C79.8542 14.6562 79.4167 14.7708 78.875 15C78.3333 15.2083 77.75 15.5 77.125 15.875C76.5208 16.25 75.9062 16.6771 75.2812 17.1562C74.6562 17.6354 74.0833 18.1354 73.5625 18.6562C73.0625 19.1771 72.6562 19.6979 72.3438 20.2188C72.0312 20.7396 71.875 21.2188 71.875 21.6562C72.3125 21.6562 72.8438 21.5729 73.4688 21.4062C74.0938 21.2188 74.7396 20.9792 75.4062 20.6875C76.0938 20.375 76.7708 20.0208 77.4375 19.625C78.1042 19.2083 78.6979 18.7708 79.2188 18.3125C79.7604 17.8542 80.1979 17.3854 80.5312 16.9062C80.8646 16.4271 81.0312 15.9583 81.0312 15.5C81.0312 14.9375 80.75 14.6562 80.1875 14.6562ZM84.7188 20.4688C84.7188 20.0729 84.7708 19.7292 84.875 19.4375C85 19.1458 85.3021 19 85.7812 19C85.8229 19 85.9167 19.0104 86.0625 19.0312C86.2292 19.0312 86.3438 19.0417 86.4062 19.0625C86.3854 20.0417 86.5417 20.7812 86.875 21.2812C87.2083 21.7604 87.8333 22 88.75 22C89.5 22 90.2396 21.8854 90.9688 21.6562C91.6979 21.4271 92.3542 21.0938 92.9375 20.6562C93.5417 20.1979 94.0208 19.6458 94.375 19C94.75 18.3542 94.9375 17.625 94.9375 16.8125C94.9375 16.3125 94.7604 15.9583 94.4062 15.75C94.0729 15.5417 93.6979 15.375 93.2812 15.25C92.8646 15.125 92.4792 14.9896 92.125 14.8438C91.7917 14.6771 91.625 14.3958 91.625 14C91.625 13.5208 91.9167 13.0625 92.5 12.625C93.0833 12.1875 93.7708 11.8021 94.5625 11.4688C95.3542 11.1146 96.1354 10.8438 96.9062 10.6562C97.6979 10.4479 98.3021 10.3438 98.7188 10.3438C98.7188 10.9479 98.5833 11.375 98.3125 11.625C98.0625 11.875 97.75 12.0729 97.375 12.2188C97 12.3646 96.6146 12.5104 96.2188 12.6562C95.8438 12.7812 95.5312 13.0312 95.2812 13.4062C95.6146 13.6771 95.8854 13.9271 96.0938 14.1562C96.3229 14.3646 96.5 14.5938 96.625 14.8438C96.75 15.0938 96.8333 15.375 96.875 15.6875C96.9167 15.9792 96.9375 16.3333 96.9375 16.75C96.9375 17.8333 96.6979 18.8229 96.2188 19.7188C95.7604 20.5938 95.1562 21.3542 94.4062 22C93.6562 22.625 92.8021 23.1146 91.8438 23.4688C90.8854 23.8021 89.9062 23.9688 88.9062 23.9688C88.3646 23.9688 87.8333 23.9062 87.3125 23.7812C86.8125 23.6354 86.3646 23.4167 85.9688 23.125C85.5938 22.8333 85.2917 22.4688 85.0625 22.0312C84.8333 21.5938 84.7188 21.0729 84.7188 20.4688Z" fill="currentColor"/>
</svg>
